<?xml version="1.0" encoding="utf-8" standalone="no"?>
<!DOCTYPE svg PUBLIC "-//W3C//DTD SVG 1.1//EN"
  "http://www.w3.org/Graphics/SVG/1.1/DTD/svg11.dtd">
<svg xmlns:xlink="http://www.w3.org/1999/xlink" width="727.335312pt" height="496.438132pt" viewBox="0 0 727.335312 496.438132" xmlns="http://www.w3.org/2000/svg" version="1.1">
 <metadata>
  <rdf:RDF xmlns:dc="http://purl.org/dc/elements/1.1/" xmlns:cc="http://creativecommons.org/ns#" xmlns:rdf="http://www.w3.org/1999/02/22-rdf-syntax-ns#">
   <cc:Work>
    <dc:type rdf:resource="http://purl.org/dc/dcmitype/StillImage"/>
    <dc:date>2026-02-09T21:03:06.916212</dc:date>
    <dc:format>image/svg+xml</dc:format>
    <dc:creator>
     <cc:Agent>
      <dc:title>Matplotlib v3.10.8, https://matplotlib.org/</dc:title>
     </cc:Agent>
    </dc:creator>
   </cc:Work>
  </rdf:RDF>
 </metadata>
 <defs>
  <style type="text/css">*{stroke-linejoin: round; stroke-linecap: butt}</style>
 </defs>
 <g id="figure_1">
  <g id="patch_1">
   <path d="M 0 496.438132 
L 727.335312 496.438132 
L 727.335312 0 
L 0 0 
z
" style="fill: #ffffff"/>
  </g>
  <g id="axes_1">
   <g id="patch_2">
    <path d="M 48.13 436.905464 
L 631.34 436.905464 
L 631.34 24.795 
L 48.13 24.795 
z
" style="fill: #ffffff"/>
   </g>
   <g id="matplotlib.axis_1">
    <g id="xtick_1">
     <g id="line2d_1">
      <path d="M 120.639626 436.905464 
L 120.639626 24.795 
" clip-path="url(#pda9d760198)" style="fill: none; stroke-dasharray: 2.96,1.28; stroke-dashoffset: 0; stroke: #cccccc; stroke-opacity: 0.7; stroke-width: 0.8"/>
     </g>
     <g id="line2d_2"/>
     <g id="text_1">
      <!-- 2025-12-01 -->
      <g style="fill: #262626" transform="translate(75.307633 472.254879) rotate(-30) scale(0.1 -0.1)">
       <defs>
        <path id="LiberationSans-32" d="M 322 0 
L 322 397 
Q 481 763 711 1042 
Q 941 1322 1194 1548 
Q 1447 1775 1695 1969 
Q 1944 2163 2144 2356 
Q 2344 2550 2467 2762 
Q 2591 2975 2591 3244 
Q 2591 3606 2378 3806 
Q 2166 4006 1788 4006 
Q 1428 4006 1195 3811 
Q 963 3616 922 3263 
L 347 3316 
Q 409 3844 795 4156 
Q 1181 4469 1788 4469 
Q 2453 4469 2811 4155 
Q 3169 3841 3169 3263 
Q 3169 3006 3051 2753 
Q 2934 2500 2703 2247 
Q 2472 1994 1819 1463 
Q 1459 1169 1246 933 
Q 1034 697 941 478 
L 3238 478 
L 3238 0 
L 322 0 
z
" transform="scale(0.015625)"/>
        <path id="LiberationSans-30" d="M 3309 2203 
Q 3309 1100 2920 518 
Q 2531 -63 1772 -63 
Q 1013 -63 631 515 
Q 250 1094 250 2203 
Q 250 3338 620 3903 
Q 991 4469 1791 4469 
Q 2569 4469 2939 3897 
Q 3309 3325 3309 2203 
z
M 2738 2203 
Q 2738 3156 2517 3584 
Q 2297 4013 1791 4013 
Q 1272 4013 1045 3591 
Q 819 3169 819 2203 
Q 819 1266 1048 831 
Q 1278 397 1778 397 
Q 2275 397 2506 840 
Q 2738 1284 2738 2203 
z
" transform="scale(0.015625)"/>
        <path id="LiberationSans-35" d="M 3291 1434 
Q 3291 738 2877 337 
Q 2463 -63 1728 -63 
Q 1113 -63 734 206 
Q 356 475 256 984 
L 825 1050 
Q 1003 397 1741 397 
Q 2194 397 2450 670 
Q 2706 944 2706 1422 
Q 2706 1838 2448 2094 
Q 2191 2350 1753 2350 
Q 1525 2350 1328 2278 
Q 1131 2206 934 2034 
L 384 2034 
L 531 4403 
L 3034 4403 
L 3034 3925 
L 1044 3925 
L 959 2528 
Q 1325 2809 1869 2809 
Q 2519 2809 2905 2428 
Q 3291 2047 3291 1434 
z
" transform="scale(0.015625)"/>
        <path id="LiberationSans-2d" d="M 284 1450 
L 284 1950 
L 1847 1950 
L 1847 1450 
L 284 1450 
z
" transform="scale(0.015625)"/>
        <path id="LiberationSans-31" d="M 488 0 
L 488 478 
L 1609 478 
L 1609 3866 
L 616 3156 
L 616 3688 
L 1656 4403 
L 2175 4403 
L 2175 478 
L 3247 478 
L 3247 0 
L 488 0 
z
" transform="scale(0.015625)"/>
       </defs>
       <use xlink:href="#LiberationSans-32"/>
       <use xlink:href="#LiberationSans-30" transform="translate(55.615234 0)"/>
       <use xlink:href="#LiberationSans-32" transform="translate(111.230469 0)"/>
       <use xlink:href="#LiberationSans-35" transform="translate(166.845703 0)"/>
       <use xlink:href="#LiberationSans-2d" transform="translate(222.460938 0)"/>
       <use xlink:href="#LiberationSans-31" transform="translate(255.761719 0)"/>
       <use xlink:href="#LiberationSans-32" transform="translate(311.376953 0)"/>
       <use xlink:href="#LiberationSans-2d" transform="translate(366.992188 0)"/>
       <use xlink:href="#LiberationSans-30" transform="translate(400.292969 0)"/>
       <use xlink:href="#LiberationSans-31" transform="translate(455.908203 0)"/>
      </g>
     </g>
    </g>
    <g id="xtick_2">
     <g id="line2d_3">
      <path d="M 216.290756 436.905464 
L 216.290756 24.795 
" clip-path="url(#pda9d760198)" style="fill: none; stroke-dasharray: 2.96,1.28; stroke-dashoffset: 0; stroke: #cccccc; stroke-opacity: 0.7; stroke-width: 0.8"/>
     </g>
     <g id="line2d_4"/>
     <g id="text_2">
      <!-- 2025-12-15 -->
      <g style="fill: #262626" transform="translate(170.958763 472.254879) rotate(-30) scale(0.1 -0.1)">
       <use xlink:href="#LiberationSans-32"/>
       <use xlink:href="#LiberationSans-30" transform="translate(55.615234 0)"/>
       <use xlink:href="#LiberationSans-32" transform="translate(111.230469 0)"/>
       <use xlink:href="#LiberationSans-35" transform="translate(166.845703 0)"/>
       <use xlink:href="#LiberationSans-2d" transform="translate(222.460938 0)"/>
       <use xlink:href="#LiberationSans-31" transform="translate(255.761719 0)"/>
       <use xlink:href="#LiberationSans-32" transform="translate(311.376953 0)"/>
       <use xlink:href="#LiberationSans-2d" transform="translate(366.992188 0)"/>
       <use xlink:href="#LiberationSans-31" transform="translate(400.292969 0)"/>
       <use xlink:href="#LiberationSans-35" transform="translate(455.908203 0)"/>
      </g>
     </g>
    </g>
    <g id="xtick_3">
     <g id="line2d_5">
      <path d="M 332.438557 436.905464 
L 332.438557 24.795 
" clip-path="url(#pda9d760198)" style="fill: none; stroke-dasharray: 2.96,1.28; stroke-dashoffset: 0; stroke: #cccccc; stroke-opacity: 0.7; stroke-width: 0.8"/>
     </g>
     <g id="line2d_6"/>
     <g id="text_3">
      <!-- 2026-01-01 -->
      <g style="fill: #262626" transform="translate(287.106564 472.254879) rotate(-30) scale(0.1 -0.1)">
       <defs>
        <path id="LiberationSans-36" d="M 3278 1441 
Q 3278 744 2900 340 
Q 2522 -63 1856 -63 
Q 1113 -63 719 490 
Q 325 1044 325 2100 
Q 325 3244 734 3856 
Q 1144 4469 1900 4469 
Q 2897 4469 3156 3572 
L 2619 3475 
Q 2453 4013 1894 4013 
Q 1413 4013 1148 3564 
Q 884 3116 884 2266 
Q 1038 2550 1316 2698 
Q 1594 2847 1953 2847 
Q 2563 2847 2920 2465 
Q 3278 2084 3278 1441 
z
M 2706 1416 
Q 2706 1894 2472 2153 
Q 2238 2413 1819 2413 
Q 1425 2413 1183 2183 
Q 941 1953 941 1550 
Q 941 1041 1192 716 
Q 1444 391 1838 391 
Q 2244 391 2475 664 
Q 2706 938 2706 1416 
z
" transform="scale(0.015625)"/>
       </defs>
       <use xlink:href="#LiberationSans-32"/>
       <use xlink:href="#LiberationSans-30" transform="translate(55.615234 0)"/>
       <use xlink:href="#LiberationSans-32" transform="translate(111.230469 0)"/>
       <use xlink:href="#LiberationSans-36" transform="translate(166.845703 0)"/>
       <use xlink:href="#LiberationSans-2d" transform="translate(222.460938 0)"/>
       <use xlink:href="#LiberationSans-30" transform="translate(255.761719 0)"/>
       <use xlink:href="#LiberationSans-31" transform="translate(311.376953 0)"/>
       <use xlink:href="#LiberationSans-2d" transform="translate(366.992188 0)"/>
       <use xlink:href="#LiberationSans-30" transform="translate(400.292969 0)"/>
       <use xlink:href="#LiberationSans-31" transform="translate(455.908203 0)"/>
      </g>
     </g>
    </g>
    <g id="xtick_4">
     <g id="line2d_7">
      <path d="M 428.089687 436.905464 
L 428.089687 24.795 
" clip-path="url(#pda9d760198)" style="fill: none; stroke-dasharray: 2.96,1.28; stroke-dashoffset: 0; stroke: #cccccc; stroke-opacity: 0.7; stroke-width: 0.8"/>
     </g>
     <g id="line2d_8"/>
     <g id="text_4">
      <!-- 2026-01-15 -->
      <g style="fill: #262626" transform="translate(382.757694 472.254879) rotate(-30) scale(0.1 -0.1)">
       <use xlink:href="#LiberationSans-32"/>
       <use xlink:href="#LiberationSans-30" transform="translate(55.615234 0)"/>
       <use xlink:href="#LiberationSans-32" transform="translate(111.230469 0)"/>
       <use xlink:href="#LiberationSans-36" transform="translate(166.845703 0)"/>
       <use xlink:href="#LiberationSans-2d" transform="translate(222.460938 0)"/>
       <use xlink:href="#LiberationSans-30" transform="translate(255.761719 0)"/>
       <use xlink:href="#LiberationSans-31" transform="translate(311.376953 0)"/>
       <use xlink:href="#LiberationSans-2d" transform="translate(366.992188 0)"/>
       <use xlink:href="#LiberationSans-31" transform="translate(400.292969 0)"/>
       <use xlink:href="#LiberationSans-35" transform="translate(455.908203 0)"/>
      </g>
     </g>
    </g>
    <g id="xtick_5">
     <g id="line2d_9">
      <path d="M 544.237488 436.905464 
L 544.237488 24.795 
" clip-path="url(#pda9d760198)" style="fill: none; stroke-dasharray: 2.96,1.28; stroke-dashoffset: 0; stroke: #cccccc; stroke-opacity: 0.7; stroke-width: 0.8"/>
     </g>
     <g id="line2d_10"/>
     <g id="text_5">
      <!-- 2026-02-01 -->
      <g style="fill: #262626" transform="translate(498.905495 472.254879) rotate(-30) scale(0.1 -0.1)">
       <use xlink:href="#LiberationSans-32"/>
       <use xlink:href="#LiberationSans-30" transform="translate(55.615234 0)"/>
       <use xlink:href="#LiberationSans-32" transform="translate(111.230469 0)"/>
       <use xlink:href="#LiberationSans-36" transform="translate(166.845703 0)"/>
       <use xlink:href="#LiberationSans-2d" transform="translate(222.460938 0)"/>
       <use xlink:href="#LiberationSans-30" transform="translate(255.761719 0)"/>
       <use xlink:href="#LiberationSans-32" transform="translate(311.376953 0)"/>
       <use xlink:href="#LiberationSans-2d" transform="translate(366.992188 0)"/>
       <use xlink:href="#LiberationSans-30" transform="translate(400.292969 0)"/>
       <use xlink:href="#LiberationSans-31" transform="translate(455.908203 0)"/>
      </g>
     </g>
    </g>
    <g id="text_6">
     <!-- Date (Commit Time) -->
     <g style="fill: #262626" transform="translate(286.065 486.748132) scale(0.12 -0.12)">
      <defs>
       <path id="LiberationSans-44" d="M 4316 2247 
Q 4316 1566 4050 1055 
Q 3784 544 3296 272 
Q 2809 0 2172 0 
L 525 0 
L 525 4403 
L 1981 4403 
Q 3100 4403 3708 3842 
Q 4316 3281 4316 2247 
z
M 3716 2247 
Q 3716 3066 3267 3495 
Q 2819 3925 1969 3925 
L 1122 3925 
L 1122 478 
L 2103 478 
Q 2588 478 2955 690 
Q 3322 903 3519 1303 
Q 3716 1703 3716 2247 
z
" transform="scale(0.015625)"/>
       <path id="LiberationSans-61" d="M 1294 -63 
Q 784 -63 528 206 
Q 272 475 272 944 
Q 272 1469 617 1750 
Q 963 2031 1731 2050 
L 2491 2063 
L 2491 2247 
Q 2491 2659 2316 2837 
Q 2141 3016 1766 3016 
Q 1388 3016 1216 2887 
Q 1044 2759 1009 2478 
L 422 2531 
Q 566 3444 1778 3444 
Q 2416 3444 2737 3151 
Q 3059 2859 3059 2306 
L 3059 850 
Q 3059 600 3125 473 
Q 3191 347 3375 347 
Q 3456 347 3559 369 
L 3559 19 
Q 3347 -31 3125 -31 
Q 2813 -31 2670 133 
Q 2528 297 2509 647 
L 2491 647 
Q 2275 259 1989 98 
Q 1703 -63 1294 -63 
z
M 1422 359 
Q 1731 359 1972 500 
Q 2213 641 2352 886 
Q 2491 1131 2491 1391 
L 2491 1669 
L 1875 1656 
Q 1478 1650 1273 1575 
Q 1069 1500 959 1344 
Q 850 1188 850 934 
Q 850 659 998 509 
Q 1147 359 1422 359 
z
" transform="scale(0.015625)"/>
       <path id="LiberationSans-74" d="M 1731 25 
Q 1453 -50 1163 -50 
Q 488 -50 488 716 
L 488 2972 
L 97 2972 
L 97 3381 
L 509 3381 
L 675 4138 
L 1050 4138 
L 1050 3381 
L 1675 3381 
L 1675 2972 
L 1050 2972 
L 1050 838 
Q 1050 594 1129 495 
Q 1209 397 1406 397 
Q 1519 397 1731 441 
L 1731 25 
z
" transform="scale(0.015625)"/>
       <path id="LiberationSans-65" d="M 863 1572 
Q 863 991 1103 675 
Q 1344 359 1806 359 
Q 2172 359 2392 506 
Q 2613 653 2691 878 
L 3184 738 
Q 2881 -63 1806 -63 
Q 1056 -63 664 384 
Q 272 831 272 1713 
Q 272 2550 664 2997 
Q 1056 3444 1784 3444 
Q 3275 3444 3275 1647 
L 3275 1572 
L 863 1572 
z
M 2694 2003 
Q 2647 2538 2422 2783 
Q 2197 3028 1775 3028 
Q 1366 3028 1127 2754 
Q 888 2481 869 2003 
L 2694 2003 
z
" transform="scale(0.015625)"/>
       <path id="LiberationSans-20" transform="scale(0.015625)"/>
       <path id="LiberationSans-28" d="M 397 1663 
Q 397 2566 680 3284 
Q 963 4003 1550 4638 
L 2094 4638 
Q 1509 3988 1236 3256 
Q 963 2525 963 1656 
Q 963 791 1233 62 
Q 1503 -666 2094 -1325 
L 1550 -1325 
Q 959 -688 678 32 
Q 397 753 397 1650 
L 397 1663 
z
" transform="scale(0.015625)"/>
       <path id="LiberationSans-43" d="M 2475 3981 
Q 1744 3981 1337 3511 
Q 931 3041 931 2222 
Q 931 1413 1354 920 
Q 1778 428 2500 428 
Q 3425 428 3891 1344 
L 4378 1100 
Q 4106 531 3614 234 
Q 3122 -63 2472 -63 
Q 1806 -63 1320 214 
Q 834 491 579 1005 
Q 325 1519 325 2222 
Q 325 3275 894 3872 
Q 1463 4469 2469 4469 
Q 3172 4469 3644 4194 
Q 4116 3919 4338 3378 
L 3772 3191 
Q 3619 3575 3280 3778 
Q 2941 3981 2475 3981 
z
" transform="scale(0.015625)"/>
       <path id="LiberationSans-6f" d="M 3291 1694 
Q 3291 806 2900 371 
Q 2509 -63 1766 -63 
Q 1025 -63 647 389 
Q 269 841 269 1694 
Q 269 3444 1784 3444 
Q 2559 3444 2925 3017 
Q 3291 2591 3291 1694 
z
M 2700 1694 
Q 2700 2394 2492 2711 
Q 2284 3028 1794 3028 
Q 1300 3028 1079 2704 
Q 859 2381 859 1694 
Q 859 1025 1076 689 
Q 1294 353 1759 353 
Q 2266 353 2483 678 
Q 2700 1003 2700 1694 
z
" transform="scale(0.015625)"/>
       <path id="LiberationSans-6d" d="M 2400 0 
L 2400 2144 
Q 2400 2634 2265 2821 
Q 2131 3009 1781 3009 
Q 1422 3009 1212 2734 
Q 1003 2459 1003 1959 
L 1003 0 
L 444 0 
L 444 2659 
Q 444 3250 425 3381 
L 956 3381 
Q 959 3366 962 3297 
Q 966 3228 970 3139 
Q 975 3050 981 2803 
L 991 2803 
Q 1172 3163 1406 3303 
Q 1641 3444 1978 3444 
Q 2363 3444 2586 3291 
Q 2809 3138 2897 2803 
L 2906 2803 
Q 3081 3144 3329 3294 
Q 3578 3444 3931 3444 
Q 4444 3444 4676 3166 
Q 4909 2888 4909 2253 
L 4909 0 
L 4353 0 
L 4353 2144 
Q 4353 2634 4218 2821 
Q 4084 3009 3734 3009 
Q 3366 3009 3161 2736 
Q 2956 2463 2956 1959 
L 2956 0 
L 2400 0 
z
" transform="scale(0.015625)"/>
       <path id="LiberationSans-69" d="M 428 4100 
L 428 4638 
L 991 4638 
L 991 4100 
L 428 4100 
z
M 428 0 
L 428 3381 
L 991 3381 
L 991 0 
L 428 0 
z
" transform="scale(0.015625)"/>
       <path id="LiberationSans-54" d="M 2250 3916 
L 2250 0 
L 1656 0 
L 1656 3916 
L 144 3916 
L 144 4403 
L 3763 4403 
L 3763 3916 
L 2250 3916 
z
" transform="scale(0.015625)"/>
       <path id="LiberationSans-29" d="M 1734 1650 
Q 1734 747 1451 28 
Q 1169 -691 581 -1325 
L 38 -1325 
Q 625 -669 897 57 
Q 1169 784 1169 1656 
Q 1169 2528 895 3256 
Q 622 3984 38 4638 
L 581 4638 
Q 1172 4000 1453 3279 
Q 1734 2559 1734 1663 
L 1734 1650 
z
" transform="scale(0.015625)"/>
      </defs>
      <use xlink:href="#LiberationSans-44"/>
      <use xlink:href="#LiberationSans-61" transform="translate(72.216797 0)"/>
      <use xlink:href="#LiberationSans-74" transform="translate(127.832031 0)"/>
      <use xlink:href="#LiberationSans-65" transform="translate(155.615234 0)"/>
      <use xlink:href="#LiberationSans-20" transform="translate(211.230469 0)"/>
      <use xlink:href="#LiberationSans-28" transform="translate(239.013672 0)"/>
      <use xlink:href="#LiberationSans-43" transform="translate(272.314453 0)"/>
      <use xlink:href="#LiberationSans-6f" transform="translate(344.53125 0)"/>
      <use xlink:href="#LiberationSans-6d" transform="translate(400.146484 0)"/>
      <use xlink:href="#LiberationSans-6d" transform="translate(483.447266 0)"/>
      <use xlink:href="#LiberationSans-69" transform="translate(566.748047 0)"/>
      <use xlink:href="#LiberationSans-74" transform="translate(588.964844 0)"/>
      <use xlink:href="#LiberationSans-20" transform="translate(616.748047 0)"/>
      <use xlink:href="#LiberationSans-54" transform="translate(642.78125 0)"/>
      <use xlink:href="#LiberationSans-69" transform="translate(700.115234 0)"/>
      <use xlink:href="#LiberationSans-6d" transform="translate(722.332031 0)"/>
      <use xlink:href="#LiberationSans-65" transform="translate(805.632812 0)"/>
      <use xlink:href="#LiberationSans-29" transform="translate(861.248047 0)"/>
     </g>
    </g>
   </g>
   <g id="matplotlib.axis_2">
    <g id="ytick_1">
     <g id="line2d_11">
      <path d="M 48.13 404.720439 
L 631.34 404.720439 
" clip-path="url(#pda9d760198)" style="fill: none; stroke-dasharray: 2.96,1.28; stroke-dashoffset: 0; stroke: #cccccc; stroke-opacity: 0.7; stroke-width: 0.8"/>
     </g>
     <g id="line2d_12"/>
     <g id="text_7">
      <!-- 200 -->
      <g style="fill: #262626" transform="translate(27.947188 408.343876) scale(0.1 -0.1)">
       <use xlink:href="#LiberationSans-32"/>
       <use xlink:href="#LiberationSans-30" transform="translate(55.615234 0)"/>
       <use xlink:href="#LiberationSans-30" transform="translate(111.230469 0)"/>
      </g>
     </g>
    </g>
    <g id="ytick_2">
     <g id="line2d_13">
      <path d="M 48.13 353.955415 
L 631.34 353.955415 
" clip-path="url(#pda9d760198)" style="fill: none; stroke-dasharray: 2.96,1.28; stroke-dashoffset: 0; stroke: #cccccc; stroke-opacity: 0.7; stroke-width: 0.8"/>
     </g>
     <g id="line2d_14"/>
     <g id="text_8">
      <!-- 400 -->
      <g style="fill: #262626" transform="translate(27.947188 357.578852) scale(0.1 -0.1)">
       <defs>
        <path id="LiberationSans-34" d="M 2753 997 
L 2753 0 
L 2222 0 
L 2222 997 
L 147 997 
L 147 1434 
L 2163 4403 
L 2753 4403 
L 2753 1441 
L 3372 1441 
L 3372 997 
L 2753 997 
z
M 2222 3769 
Q 2216 3750 2134 3603 
Q 2053 3456 2013 3397 
L 884 1734 
L 716 1503 
L 666 1441 
L 2222 1441 
L 2222 3769 
z
" transform="scale(0.015625)"/>
       </defs>
       <use xlink:href="#LiberationSans-34"/>
       <use xlink:href="#LiberationSans-30" transform="translate(55.615234 0)"/>
       <use xlink:href="#LiberationSans-30" transform="translate(111.230469 0)"/>
      </g>
     </g>
    </g>
    <g id="ytick_3">
     <g id="line2d_15">
      <path d="M 48.13 303.190391 
L 631.34 303.190391 
" clip-path="url(#pda9d760198)" style="fill: none; stroke-dasharray: 2.96,1.28; stroke-dashoffset: 0; stroke: #cccccc; stroke-opacity: 0.7; stroke-width: 0.8"/>
     </g>
     <g id="line2d_16"/>
     <g id="text_9">
      <!-- 600 -->
      <g style="fill: #262626" transform="translate(27.947188 306.813829) scale(0.1 -0.1)">
       <use xlink:href="#LiberationSans-36"/>
       <use xlink:href="#LiberationSans-30" transform="translate(55.615234 0)"/>
       <use xlink:href="#LiberationSans-30" transform="translate(111.230469 0)"/>
      </g>
     </g>
    </g>
    <g id="ytick_4">
     <g id="line2d_17">
      <path d="M 48.13 252.425367 
L 631.34 252.425367 
" clip-path="url(#pda9d760198)" style="fill: none; stroke-dasharray: 2.96,1.28; stroke-dashoffset: 0; stroke: #cccccc; stroke-opacity: 0.7; stroke-width: 0.8"/>
     </g>
     <g id="line2d_18"/>
     <g id="text_10">
      <!-- 800 -->
      <g style="fill: #262626" transform="translate(27.947188 256.048805) scale(0.1 -0.1)">
       <defs>
        <path id="LiberationSans-38" d="M 3281 1228 
Q 3281 619 2893 278 
Q 2506 -63 1781 -63 
Q 1075 -63 676 271 
Q 278 606 278 1222 
Q 278 1653 525 1947 
Q 772 2241 1156 2303 
L 1156 2316 
Q 797 2400 589 2681 
Q 381 2963 381 3341 
Q 381 3844 757 4156 
Q 1134 4469 1769 4469 
Q 2419 4469 2795 4162 
Q 3172 3856 3172 3334 
Q 3172 2956 2962 2675 
Q 2753 2394 2391 2322 
L 2391 2309 
Q 2813 2241 3047 1952 
Q 3281 1663 3281 1228 
z
M 2588 3303 
Q 2588 4050 1769 4050 
Q 1372 4050 1164 3862 
Q 956 3675 956 3303 
Q 956 2925 1170 2726 
Q 1384 2528 1775 2528 
Q 2172 2528 2380 2711 
Q 2588 2894 2588 3303 
z
M 2697 1281 
Q 2697 1691 2453 1898 
Q 2209 2106 1769 2106 
Q 1341 2106 1100 1882 
Q 859 1659 859 1269 
Q 859 359 1788 359 
Q 2247 359 2472 579 
Q 2697 800 2697 1281 
z
" transform="scale(0.015625)"/>
       </defs>
       <use xlink:href="#LiberationSans-38"/>
       <use xlink:href="#LiberationSans-30" transform="translate(55.615234 0)"/>
       <use xlink:href="#LiberationSans-30" transform="translate(111.230469 0)"/>
      </g>
     </g>
    </g>
    <g id="ytick_5">
     <g id="line2d_19">
      <path d="M 48.13 201.660343 
L 631.34 201.660343 
" clip-path="url(#pda9d760198)" style="fill: none; stroke-dasharray: 2.96,1.28; stroke-dashoffset: 0; stroke: #cccccc; stroke-opacity: 0.7; stroke-width: 0.8"/>
     </g>
     <g id="line2d_20"/>
     <g id="text_11">
      <!-- 1000 -->
      <g style="fill: #262626" transform="translate(22.38625 205.283781) scale(0.1 -0.1)">
       <use xlink:href="#LiberationSans-31"/>
       <use xlink:href="#LiberationSans-30" transform="translate(55.615234 0)"/>
       <use xlink:href="#LiberationSans-30" transform="translate(111.230469 0)"/>
       <use xlink:href="#LiberationSans-30" transform="translate(166.845703 0)"/>
      </g>
     </g>
    </g>
    <g id="ytick_6">
     <g id="line2d_21">
      <path d="M 48.13 150.895319 
L 631.34 150.895319 
" clip-path="url(#pda9d760198)" style="fill: none; stroke-dasharray: 2.96,1.28; stroke-dashoffset: 0; stroke: #cccccc; stroke-opacity: 0.7; stroke-width: 0.8"/>
     </g>
     <g id="line2d_22"/>
     <g id="text_12">
      <!-- 1200 -->
      <g style="fill: #262626" transform="translate(22.38625 154.518757) scale(0.1 -0.1)">
       <use xlink:href="#LiberationSans-31"/>
       <use xlink:href="#LiberationSans-32" transform="translate(55.615234 0)"/>
       <use xlink:href="#LiberationSans-30" transform="translate(111.230469 0)"/>
       <use xlink:href="#LiberationSans-30" transform="translate(166.845703 0)"/>
      </g>
     </g>
    </g>
    <g id="ytick_7">
     <g id="line2d_23">
      <path d="M 48.13 100.130295 
L 631.34 100.130295 
" clip-path="url(#pda9d760198)" style="fill: none; stroke-dasharray: 2.96,1.28; stroke-dashoffset: 0; stroke: #cccccc; stroke-opacity: 0.7; stroke-width: 0.8"/>
     </g>
     <g id="line2d_24"/>
     <g id="text_13">
      <!-- 1400 -->
      <g style="fill: #262626" transform="translate(22.38625 103.753733) scale(0.1 -0.1)">
       <use xlink:href="#LiberationSans-31"/>
       <use xlink:href="#LiberationSans-34" transform="translate(55.615234 0)"/>
       <use xlink:href="#LiberationSans-30" transform="translate(111.230469 0)"/>
       <use xlink:href="#LiberationSans-30" transform="translate(166.845703 0)"/>
      </g>
     </g>
    </g>
    <g id="ytick_8">
     <g id="line2d_25">
      <path d="M 48.13 49.365272 
L 631.34 49.365272 
" clip-path="url(#pda9d760198)" style="fill: none; stroke-dasharray: 2.96,1.28; stroke-dashoffset: 0; stroke: #cccccc; stroke-opacity: 0.7; stroke-width: 0.8"/>
     </g>
     <g id="line2d_26"/>
     <g id="text_14">
      <!-- 1600 -->
      <g style="fill: #262626" transform="translate(22.38625 52.988709) scale(0.1 -0.1)">
       <use xlink:href="#LiberationSans-31"/>
       <use xlink:href="#LiberationSans-36" transform="translate(55.615234 0)"/>
       <use xlink:href="#LiberationSans-30" transform="translate(111.230469 0)"/>
       <use xlink:href="#LiberationSans-30" transform="translate(166.845703 0)"/>
      </g>
     </g>
    </g>
    <g id="text_15">
     <!-- Lines of Code -->
     <g style="fill: #262626" transform="translate(15.89625 267.873044) rotate(-90) scale(0.12 -0.12)">
      <defs>
       <path id="LiberationSans-4c" d="M 525 0 
L 525 4403 
L 1122 4403 
L 1122 488 
L 3347 488 
L 3347 0 
L 525 0 
z
" transform="scale(0.015625)"/>
       <path id="LiberationSans-6e" d="M 2578 0 
L 2578 2144 
Q 2578 2478 2512 2662 
Q 2447 2847 2303 2928 
Q 2159 3009 1881 3009 
Q 1475 3009 1240 2731 
Q 1006 2453 1006 1959 
L 1006 0 
L 444 0 
L 444 2659 
Q 444 3250 425 3381 
L 956 3381 
Q 959 3366 962 3297 
Q 966 3228 970 3139 
Q 975 3050 981 2803 
L 991 2803 
Q 1184 3153 1439 3298 
Q 1694 3444 2072 3444 
Q 2628 3444 2886 3167 
Q 3144 2891 3144 2253 
L 3144 0 
L 2578 0 
z
" transform="scale(0.015625)"/>
       <path id="LiberationSans-73" d="M 2969 934 
Q 2969 456 2608 196 
Q 2247 -63 1597 -63 
Q 966 -63 623 145 
Q 281 353 178 794 
L 675 891 
Q 747 619 972 492 
Q 1197 366 1597 366 
Q 2025 366 2223 497 
Q 2422 628 2422 891 
Q 2422 1091 2284 1216 
Q 2147 1341 1841 1422 
L 1438 1528 
Q 953 1653 748 1773 
Q 544 1894 428 2066 
Q 313 2238 313 2488 
Q 313 2950 642 3192 
Q 972 3434 1603 3434 
Q 2163 3434 2492 3237 
Q 2822 3041 2909 2606 
L 2403 2544 
Q 2356 2769 2151 2889 
Q 1947 3009 1603 3009 
Q 1222 3009 1040 2893 
Q 859 2778 859 2544 
Q 859 2400 934 2306 
Q 1009 2213 1156 2147 
Q 1303 2081 1775 1966 
Q 2222 1853 2419 1758 
Q 2616 1663 2730 1547 
Q 2844 1431 2906 1279 
Q 2969 1128 2969 934 
z
" transform="scale(0.015625)"/>
       <path id="LiberationSans-66" d="M 1128 2972 
L 1128 0 
L 566 0 
L 566 2972 
L 91 2972 
L 91 3381 
L 566 3381 
L 566 3763 
Q 566 4225 769 4428 
Q 972 4631 1391 4631 
Q 1625 4631 1788 4594 
L 1788 4166 
Q 1647 4191 1538 4191 
Q 1322 4191 1225 4081 
Q 1128 3972 1128 3684 
L 1128 3381 
L 1788 3381 
L 1788 2972 
L 1128 2972 
z
" transform="scale(0.015625)"/>
       <path id="LiberationSans-64" d="M 2566 544 
Q 2409 219 2151 78 
Q 1894 -63 1513 -63 
Q 872 -63 570 368 
Q 269 800 269 1675 
Q 269 3444 1513 3444 
Q 1897 3444 2153 3303 
Q 2409 3163 2566 2856 
L 2572 2856 
L 2566 3234 
L 2566 4638 
L 3128 4638 
L 3128 697 
Q 3128 169 3147 0 
L 2609 0 
Q 2600 50 2589 231 
Q 2578 413 2578 544 
L 2566 544 
z
M 859 1694 
Q 859 984 1046 678 
Q 1234 372 1656 372 
Q 2134 372 2350 703 
Q 2566 1034 2566 1731 
Q 2566 2403 2350 2715 
Q 2134 3028 1663 3028 
Q 1238 3028 1048 2714 
Q 859 2400 859 1694 
z
" transform="scale(0.015625)"/>
      </defs>
      <use xlink:href="#LiberationSans-4c"/>
      <use xlink:href="#LiberationSans-69" transform="translate(55.615234 0)"/>
      <use xlink:href="#LiberationSans-6e" transform="translate(77.832031 0)"/>
      <use xlink:href="#LiberationSans-65" transform="translate(133.447266 0)"/>
      <use xlink:href="#LiberationSans-73" transform="translate(189.0625 0)"/>
      <use xlink:href="#LiberationSans-20" transform="translate(239.0625 0)"/>
      <use xlink:href="#LiberationSans-6f" transform="translate(266.845703 0)"/>
      <use xlink:href="#LiberationSans-66" transform="translate(322.460938 0)"/>
      <use xlink:href="#LiberationSans-20" transform="translate(350.244141 0)"/>
      <use xlink:href="#LiberationSans-43" transform="translate(378.027344 0)"/>
      <use xlink:href="#LiberationSans-6f" transform="translate(450.244141 0)"/>
      <use xlink:href="#LiberationSans-64" transform="translate(505.859375 0)"/>
      <use xlink:href="#LiberationSans-65" transform="translate(561.474609 0)"/>
     </g>
    </g>
   </g>
   <g id="line2d_27">
    <path d="M 74.800071 375.53055 
L 217.045543 299.383014 
L 217.087295 299.129189 
L 217.210022 302.682741 
L 220.351105 298.875364 
L 231.908871 298.113889 
L 232.790497 297.352413 
L 240.947096 296.844763 
L 246.20095 292.783561 
L 254.55532 292.275911 
L 264.583822 292.529736 
L 272.897468 292.529736 
L 289.137205 292.275911 
L 290.540104 287.960884 
L 290.562166 287.960884 
L 293.114286 288.468534 
L 321.359521 286.184108 
L 362.298458 285.676458 
L 374.8431 285.930283 
L 388.601965 282.630556 
L 527.790412 270.700776 
L 529.43236 246.841214 
L 548.509605 253.694493 
L 557.796842 253.694493 
L 580.037944 256.486569 
L 581.615128 256.994219 
L 604.830455 265.878098 
" clip-path="url(#pda9d760198)" style="fill: none; stroke: #1f77b4; stroke-width: 1.5; stroke-linecap: round"/>
    <defs>
     <path id="mce9de84248" d="M 0 3 
C 0.795609 3 1.55874 2.683901 2.12132 2.12132 
C 2.683901 1.55874 3 0.795609 3 0 
C 3 -0.795609 2.683901 -1.55874 2.12132 -2.12132 
C 1.55874 -2.683901 0.795609 -3 0 -3 
C -0.795609 -3 -1.55874 -2.683901 -2.12132 -2.12132 
C -2.683901 -1.55874 -3 -0.795609 -3 0 
C -3 0.795609 -2.683901 1.55874 -2.12132 2.12132 
C -1.55874 2.683901 -0.795609 3 0 3 
z
" style="stroke: #1f77b4"/>
    </defs>
    <g clip-path="url(#pda9d760198)">
     <use xlink:href="#mce9de84248" x="74.800071" y="375.53055" style="fill: #1f77b4; stroke: #1f77b4"/>
     <use xlink:href="#mce9de84248" x="217.045543" y="299.383014" style="fill: #1f77b4; stroke: #1f77b4"/>
     <use xlink:href="#mce9de84248" x="217.087295" y="299.129189" style="fill: #1f77b4; stroke: #1f77b4"/>
     <use xlink:href="#mce9de84248" x="217.210022" y="302.682741" style="fill: #1f77b4; stroke: #1f77b4"/>
     <use xlink:href="#mce9de84248" x="220.351105" y="298.875364" style="fill: #1f77b4; stroke: #1f77b4"/>
     <use xlink:href="#mce9de84248" x="231.908871" y="298.113889" style="fill: #1f77b4; stroke: #1f77b4"/>
     <use xlink:href="#mce9de84248" x="232.790497" y="297.352413" style="fill: #1f77b4; stroke: #1f77b4"/>
     <use xlink:href="#mce9de84248" x="240.947096" y="296.844763" style="fill: #1f77b4; stroke: #1f77b4"/>
     <use xlink:href="#mce9de84248" x="246.20095" y="292.783561" style="fill: #1f77b4; stroke: #1f77b4"/>
     <use xlink:href="#mce9de84248" x="254.55532" y="292.275911" style="fill: #1f77b4; stroke: #1f77b4"/>
     <use xlink:href="#mce9de84248" x="264.583822" y="292.529736" style="fill: #1f77b4; stroke: #1f77b4"/>
     <use xlink:href="#mce9de84248" x="272.897468" y="292.529736" style="fill: #1f77b4; stroke: #1f77b4"/>
     <use xlink:href="#mce9de84248" x="289.137205" y="292.275911" style="fill: #1f77b4; stroke: #1f77b4"/>
     <use xlink:href="#mce9de84248" x="290.540104" y="287.960884" style="fill: #1f77b4; stroke: #1f77b4"/>
     <use xlink:href="#mce9de84248" x="290.562166" y="287.960884" style="fill: #1f77b4; stroke: #1f77b4"/>
     <use xlink:href="#mce9de84248" x="293.114286" y="288.468534" style="fill: #1f77b4; stroke: #1f77b4"/>
     <use xlink:href="#mce9de84248" x="321.359521" y="286.184108" style="fill: #1f77b4; stroke: #1f77b4"/>
     <use xlink:href="#mce9de84248" x="362.298458" y="285.676458" style="fill: #1f77b4; stroke: #1f77b4"/>
     <use xlink:href="#mce9de84248" x="374.8431" y="285.930283" style="fill: #1f77b4; stroke: #1f77b4"/>
     <use xlink:href="#mce9de84248" x="388.601965" y="282.630556" style="fill: #1f77b4; stroke: #1f77b4"/>
     <use xlink:href="#mce9de84248" x="527.790412" y="270.700776" style="fill: #1f77b4; stroke: #1f77b4"/>
     <use xlink:href="#mce9de84248" x="529.43236" y="246.841214" style="fill: #1f77b4; stroke: #1f77b4"/>
     <use xlink:href="#mce9de84248" x="548.509605" y="253.694493" style="fill: #1f77b4; stroke: #1f77b4"/>
     <use xlink:href="#mce9de84248" x="557.796842" y="253.694493" style="fill: #1f77b4; stroke: #1f77b4"/>
     <use xlink:href="#mce9de84248" x="580.037944" y="256.486569" style="fill: #1f77b4; stroke: #1f77b4"/>
     <use xlink:href="#mce9de84248" x="581.615128" y="256.994219" style="fill: #1f77b4; stroke: #1f77b4"/>
     <use xlink:href="#mce9de84248" x="604.830455" y="265.878098" style="fill: #1f77b4; stroke: #1f77b4"/>
    </g>
   </g>
   <g id="line2d_28">
    <path d="M 74.639545 375.53055 
L 231.405548 384.668254 
L 231.406972 384.160604 
L 231.908871 354.71689 
L 237.087285 354.71689 
L 240.947096 296.337113 
L 246.20095 285.422633 
L 254.55532 285.676458 
L 264.583822 276.792579 
L 264.717462 277.807879 
L 267.00167 272.223726 
L 272.897468 271.208426 
L 289.137205 262.070722 
L 290.540104 255.725094 
L 292.012828 255.725094 
L 293.114286 253.694493 
L 310.773528 254.202143 
L 362.298458 253.186842 
L 374.8431 252.933017 
L 390.663019 252.933017 
L 527.790412 249.125641 
L 548.509605 243.795313 
L 557.796842 237.449685 
L 560.162341 225.519904 
L 567.37358 226.78903 
L 576.879701 228.058156 
L 580.037944 228.819631 
L 581.615128 226.78903 
L 596.474661 226.78903 
L 597.829481 226.78903 
L 604.830455 221.966353 
" clip-path="url(#pda9d760198)" style="fill: none; stroke: #ff7f0e; stroke-width: 1.5; stroke-linecap: round"/>
    <defs>
     <path id="m5ccdd67517" d="M 0 3 
C 0.795609 3 1.55874 2.683901 2.12132 2.12132 
C 2.683901 1.55874 3 0.795609 3 0 
C 3 -0.795609 2.683901 -1.55874 2.12132 -2.12132 
C 1.55874 -2.683901 0.795609 -3 0 -3 
C -0.795609 -3 -1.55874 -2.683901 -2.12132 -2.12132 
C -2.683901 -1.55874 -3 -0.795609 -3 0 
C -3 0.795609 -2.683901 1.55874 -2.12132 2.12132 
C -1.55874 2.683901 -0.795609 3 0 3 
z
" style="stroke: #ff7f0e"/>
    </defs>
    <g clip-path="url(#pda9d760198)">
     <use xlink:href="#m5ccdd67517" x="74.639545" y="375.53055" style="fill: #ff7f0e; stroke: #ff7f0e"/>
     <use xlink:href="#m5ccdd67517" x="231.405548" y="384.668254" style="fill: #ff7f0e; stroke: #ff7f0e"/>
     <use xlink:href="#m5ccdd67517" x="231.406972" y="384.160604" style="fill: #ff7f0e; stroke: #ff7f0e"/>
     <use xlink:href="#m5ccdd67517" x="231.908871" y="354.71689" style="fill: #ff7f0e; stroke: #ff7f0e"/>
     <use xlink:href="#m5ccdd67517" x="237.087285" y="354.71689" style="fill: #ff7f0e; stroke: #ff7f0e"/>
     <use xlink:href="#m5ccdd67517" x="240.947096" y="296.337113" style="fill: #ff7f0e; stroke: #ff7f0e"/>
     <use xlink:href="#m5ccdd67517" x="246.20095" y="285.422633" style="fill: #ff7f0e; stroke: #ff7f0e"/>
     <use xlink:href="#m5ccdd67517" x="254.55532" y="285.676458" style="fill: #ff7f0e; stroke: #ff7f0e"/>
     <use xlink:href="#m5ccdd67517" x="264.583822" y="276.792579" style="fill: #ff7f0e; stroke: #ff7f0e"/>
     <use xlink:href="#m5ccdd67517" x="264.717462" y="277.807879" style="fill: #ff7f0e; stroke: #ff7f0e"/>
     <use xlink:href="#m5ccdd67517" x="267.00167" y="272.223726" style="fill: #ff7f0e; stroke: #ff7f0e"/>
     <use xlink:href="#m5ccdd67517" x="272.897468" y="271.208426" style="fill: #ff7f0e; stroke: #ff7f0e"/>
     <use xlink:href="#m5ccdd67517" x="289.137205" y="262.070722" style="fill: #ff7f0e; stroke: #ff7f0e"/>
     <use xlink:href="#m5ccdd67517" x="290.540104" y="255.725094" style="fill: #ff7f0e; stroke: #ff7f0e"/>
     <use xlink:href="#m5ccdd67517" x="292.012828" y="255.725094" style="fill: #ff7f0e; stroke: #ff7f0e"/>
     <use xlink:href="#m5ccdd67517" x="293.114286" y="253.694493" style="fill: #ff7f0e; stroke: #ff7f0e"/>
     <use xlink:href="#m5ccdd67517" x="310.773528" y="254.202143" style="fill: #ff7f0e; stroke: #ff7f0e"/>
     <use xlink:href="#m5ccdd67517" x="362.298458" y="253.186842" style="fill: #ff7f0e; stroke: #ff7f0e"/>
     <use xlink:href="#m5ccdd67517" x="374.8431" y="252.933017" style="fill: #ff7f0e; stroke: #ff7f0e"/>
     <use xlink:href="#m5ccdd67517" x="390.663019" y="252.933017" style="fill: #ff7f0e; stroke: #ff7f0e"/>
     <use xlink:href="#m5ccdd67517" x="527.790412" y="249.125641" style="fill: #ff7f0e; stroke: #ff7f0e"/>
     <use xlink:href="#m5ccdd67517" x="548.509605" y="243.795313" style="fill: #ff7f0e; stroke: #ff7f0e"/>
     <use xlink:href="#m5ccdd67517" x="557.796842" y="237.449685" style="fill: #ff7f0e; stroke: #ff7f0e"/>
     <use xlink:href="#m5ccdd67517" x="560.162341" y="225.519904" style="fill: #ff7f0e; stroke: #ff7f0e"/>
     <use xlink:href="#m5ccdd67517" x="567.37358" y="226.78903" style="fill: #ff7f0e; stroke: #ff7f0e"/>
     <use xlink:href="#m5ccdd67517" x="576.879701" y="228.058156" style="fill: #ff7f0e; stroke: #ff7f0e"/>
     <use xlink:href="#m5ccdd67517" x="580.037944" y="228.819631" style="fill: #ff7f0e; stroke: #ff7f0e"/>
     <use xlink:href="#m5ccdd67517" x="581.615128" y="226.78903" style="fill: #ff7f0e; stroke: #ff7f0e"/>
     <use xlink:href="#m5ccdd67517" x="596.474661" y="226.78903" style="fill: #ff7f0e; stroke: #ff7f0e"/>
     <use xlink:href="#m5ccdd67517" x="597.829481" y="226.78903" style="fill: #ff7f0e; stroke: #ff7f0e"/>
     <use xlink:href="#m5ccdd67517" x="604.830455" y="221.966353" style="fill: #ff7f0e; stroke: #ff7f0e"/>
    </g>
   </g>
   <g id="line2d_29">
    <path d="M 74.800071 375.53055 
L 264.583822 384.414429 
L 264.717462 383.652954 
L 267.00167 376.545851 
L 272.897468 365.885196 
L 289.137205 348.625087 
L 290.540104 346.086836 
L 292.012828 345.833011 
L 293.114286 344.817711 
L 321.359521 316.135472 
L 374.8431 315.627822 
L 388.601965 310.297494 
L 390.663019 309.282194 
L 527.790412 315.881647 
L 548.509605 311.56662 
L 557.796842 302.175091 
L 560.162341 311.312795 
L 567.37358 309.789844 
L 576.879701 300.398315 
L 580.037944 273.492852 
L 581.615128 272.223726 
L 596.474661 272.223726 
L 597.829481 268.670175 
L 604.830455 264.355148 
" clip-path="url(#pda9d760198)" style="fill: none; stroke: #2ca02c; stroke-width: 1.5; stroke-linecap: round"/>
    <defs>
     <path id="mc994d31f9f" d="M 0 3 
C 0.795609 3 1.55874 2.683901 2.12132 2.12132 
C 2.683901 1.55874 3 0.795609 3 0 
C 3 -0.795609 2.683901 -1.55874 2.12132 -2.12132 
C 1.55874 -2.683901 0.795609 -3 0 -3 
C -0.795609 -3 -1.55874 -2.683901 -2.12132 -2.12132 
C -2.683901 -1.55874 -3 -0.795609 -3 0 
C -3 0.795609 -2.683901 1.55874 -2.12132 2.12132 
C -1.55874 2.683901 -0.795609 3 0 3 
z
" style="stroke: #2ca02c"/>
    </defs>
    <g clip-path="url(#pda9d760198)">
     <use xlink:href="#mc994d31f9f" x="74.800071" y="375.53055" style="fill: #2ca02c; stroke: #2ca02c"/>
     <use xlink:href="#mc994d31f9f" x="264.583822" y="384.414429" style="fill: #2ca02c; stroke: #2ca02c"/>
     <use xlink:href="#mc994d31f9f" x="264.717462" y="383.652954" style="fill: #2ca02c; stroke: #2ca02c"/>
     <use xlink:href="#mc994d31f9f" x="267.00167" y="376.545851" style="fill: #2ca02c; stroke: #2ca02c"/>
     <use xlink:href="#mc994d31f9f" x="272.897468" y="365.885196" style="fill: #2ca02c; stroke: #2ca02c"/>
     <use xlink:href="#mc994d31f9f" x="289.137205" y="348.625087" style="fill: #2ca02c; stroke: #2ca02c"/>
     <use xlink:href="#mc994d31f9f" x="290.540104" y="346.086836" style="fill: #2ca02c; stroke: #2ca02c"/>
     <use xlink:href="#mc994d31f9f" x="292.012828" y="345.833011" style="fill: #2ca02c; stroke: #2ca02c"/>
     <use xlink:href="#mc994d31f9f" x="293.114286" y="344.817711" style="fill: #2ca02c; stroke: #2ca02c"/>
     <use xlink:href="#mc994d31f9f" x="321.359521" y="316.135472" style="fill: #2ca02c; stroke: #2ca02c"/>
     <use xlink:href="#mc994d31f9f" x="374.8431" y="315.627822" style="fill: #2ca02c; stroke: #2ca02c"/>
     <use xlink:href="#mc994d31f9f" x="388.601965" y="310.297494" style="fill: #2ca02c; stroke: #2ca02c"/>
     <use xlink:href="#mc994d31f9f" x="390.663019" y="309.282194" style="fill: #2ca02c; stroke: #2ca02c"/>
     <use xlink:href="#mc994d31f9f" x="527.790412" y="315.881647" style="fill: #2ca02c; stroke: #2ca02c"/>
     <use xlink:href="#mc994d31f9f" x="548.509605" y="311.56662" style="fill: #2ca02c; stroke: #2ca02c"/>
     <use xlink:href="#mc994d31f9f" x="557.796842" y="302.175091" style="fill: #2ca02c; stroke: #2ca02c"/>
     <use xlink:href="#mc994d31f9f" x="560.162341" y="311.312795" style="fill: #2ca02c; stroke: #2ca02c"/>
     <use xlink:href="#mc994d31f9f" x="567.37358" y="309.789844" style="fill: #2ca02c; stroke: #2ca02c"/>
     <use xlink:href="#mc994d31f9f" x="576.879701" y="300.398315" style="fill: #2ca02c; stroke: #2ca02c"/>
     <use xlink:href="#mc994d31f9f" x="580.037944" y="273.492852" style="fill: #2ca02c; stroke: #2ca02c"/>
     <use xlink:href="#mc994d31f9f" x="581.615128" y="272.223726" style="fill: #2ca02c; stroke: #2ca02c"/>
     <use xlink:href="#mc994d31f9f" x="596.474661" y="272.223726" style="fill: #2ca02c; stroke: #2ca02c"/>
     <use xlink:href="#mc994d31f9f" x="597.829481" y="268.670175" style="fill: #2ca02c; stroke: #2ca02c"/>
     <use xlink:href="#mc994d31f9f" x="604.830455" y="264.355148" style="fill: #2ca02c; stroke: #2ca02c"/>
    </g>
   </g>
   <g id="line2d_30">
    <path d="M 74.800071 375.53055 
L 217.045543 375.53055 
L 217.087295 375.0229 
L 217.088956 375.0229 
L 217.210022 395.83656 
L 217.545624 395.328909 
L 220.351105 370.707873 
L 231.335407 367.154321 
L 231.405548 362.585469 
L 231.908871 363.854595 
L 232.790497 356.239841 
L 237.087285 356.239841 
L 240.947096 327.049952 
L 246.20095 328.065253 
L 254.55532 325.780827 
L 264.583822 316.896947 
L 264.717462 316.896947 
L 267.00167 312.07427 
L 289.137205 306.743943 
L 290.540104 304.967167 
L 293.114286 302.936566 
L 310.773528 289.991485 
L 362.298458 285.168808 
L 374.8431 283.138207 
L 388.601965 287.960884 
L 527.790412 280.34613 
L 557.796842 164.855701 
L 560.162341 163.8404 
L 567.37358 164.094226 
L 576.879701 284.153507 
L 596.474661 277.300229 
L 604.830455 275.269628 
" clip-path="url(#pda9d760198)" style="fill: none; stroke: #d62728; stroke-width: 1.5; stroke-linecap: round"/>
    <defs>
     <path id="m88ac457891" d="M 0 3 
C 0.795609 3 1.55874 2.683901 2.12132 2.12132 
C 2.683901 1.55874 3 0.795609 3 0 
C 3 -0.795609 2.683901 -1.55874 2.12132 -2.12132 
C 1.55874 -2.683901 0.795609 -3 0 -3 
C -0.795609 -3 -1.55874 -2.683901 -2.12132 -2.12132 
C -2.683901 -1.55874 -3 -0.795609 -3 0 
C -3 0.795609 -2.683901 1.55874 -2.12132 2.12132 
C -1.55874 2.683901 -0.795609 3 0 3 
z
" style="stroke: #d62728"/>
    </defs>
    <g clip-path="url(#pda9d760198)">
     <use xlink:href="#m88ac457891" x="74.800071" y="375.53055" style="fill: #d62728; stroke: #d62728"/>
     <use xlink:href="#m88ac457891" x="217.045543" y="375.53055" style="fill: #d62728; stroke: #d62728"/>
     <use xlink:href="#m88ac457891" x="217.087295" y="375.0229" style="fill: #d62728; stroke: #d62728"/>
     <use xlink:href="#m88ac457891" x="217.088956" y="375.0229" style="fill: #d62728; stroke: #d62728"/>
     <use xlink:href="#m88ac457891" x="217.210022" y="395.83656" style="fill: #d62728; stroke: #d62728"/>
     <use xlink:href="#m88ac457891" x="217.545624" y="395.328909" style="fill: #d62728; stroke: #d62728"/>
     <use xlink:href="#m88ac457891" x="220.351105" y="370.707873" style="fill: #d62728; stroke: #d62728"/>
     <use xlink:href="#m88ac457891" x="231.335407" y="367.154321" style="fill: #d62728; stroke: #d62728"/>
     <use xlink:href="#m88ac457891" x="231.405548" y="362.585469" style="fill: #d62728; stroke: #d62728"/>
     <use xlink:href="#m88ac457891" x="231.908871" y="363.854595" style="fill: #d62728; stroke: #d62728"/>
     <use xlink:href="#m88ac457891" x="232.790497" y="356.239841" style="fill: #d62728; stroke: #d62728"/>
     <use xlink:href="#m88ac457891" x="237.087285" y="356.239841" style="fill: #d62728; stroke: #d62728"/>
     <use xlink:href="#m88ac457891" x="240.947096" y="327.049952" style="fill: #d62728; stroke: #d62728"/>
     <use xlink:href="#m88ac457891" x="246.20095" y="328.065253" style="fill: #d62728; stroke: #d62728"/>
     <use xlink:href="#m88ac457891" x="254.55532" y="325.780827" style="fill: #d62728; stroke: #d62728"/>
     <use xlink:href="#m88ac457891" x="264.583822" y="316.896947" style="fill: #d62728; stroke: #d62728"/>
     <use xlink:href="#m88ac457891" x="264.717462" y="316.896947" style="fill: #d62728; stroke: #d62728"/>
     <use xlink:href="#m88ac457891" x="267.00167" y="312.07427" style="fill: #d62728; stroke: #d62728"/>
     <use xlink:href="#m88ac457891" x="289.137205" y="306.743943" style="fill: #d62728; stroke: #d62728"/>
     <use xlink:href="#m88ac457891" x="290.540104" y="304.967167" style="fill: #d62728; stroke: #d62728"/>
     <use xlink:href="#m88ac457891" x="293.114286" y="302.936566" style="fill: #d62728; stroke: #d62728"/>
     <use xlink:href="#m88ac457891" x="310.773528" y="289.991485" style="fill: #d62728; stroke: #d62728"/>
     <use xlink:href="#m88ac457891" x="362.298458" y="285.168808" style="fill: #d62728; stroke: #d62728"/>
     <use xlink:href="#m88ac457891" x="374.8431" y="283.138207" style="fill: #d62728; stroke: #d62728"/>
     <use xlink:href="#m88ac457891" x="388.601965" y="287.960884" style="fill: #d62728; stroke: #d62728"/>
     <use xlink:href="#m88ac457891" x="527.790412" y="280.34613" style="fill: #d62728; stroke: #d62728"/>
     <use xlink:href="#m88ac457891" x="557.796842" y="164.855701" style="fill: #d62728; stroke: #d62728"/>
     <use xlink:href="#m88ac457891" x="560.162341" y="163.8404" style="fill: #d62728; stroke: #d62728"/>
     <use xlink:href="#m88ac457891" x="567.37358" y="164.094226" style="fill: #d62728; stroke: #d62728"/>
     <use xlink:href="#m88ac457891" x="576.879701" y="284.153507" style="fill: #d62728; stroke: #d62728"/>
     <use xlink:href="#m88ac457891" x="596.474661" y="277.300229" style="fill: #d62728; stroke: #d62728"/>
     <use xlink:href="#m88ac457891" x="604.830455" y="275.269628" style="fill: #d62728; stroke: #d62728"/>
    </g>
   </g>
   <g id="line2d_31">
    <path d="M 74.800071 418.17317 
L 246.20095 414.365793 
L 254.55532 322.4811 
L 264.583822 278.82318 
L 267.00167 267.908699 
L 289.137205 244.556788 
L 289.138786 244.556788 
L 290.540104 237.70351 
L 293.114286 236.942035 
L 293.14307 236.942035 
L 310.773528 215.113075 
L 362.298458 185.415536 
L 374.8431 165.363351 
L 388.601965 134.904337 
L 527.790412 43.527294 
L 529.43236 57.995326 
L 548.509605 58.249151 
L 557.796842 58.249151 
L 567.37358 55.964725 
L 576.879701 48.349971 
L 580.037944 47.334671 
L 581.615128 45.30407 
" clip-path="url(#pda9d760198)" style="fill: none; stroke: #9467bd; stroke-width: 1.5; stroke-linecap: round"/>
    <defs>
     <path id="ma8b073ebd7" d="M 0 3 
C 0.795609 3 1.55874 2.683901 2.12132 2.12132 
C 2.683901 1.55874 3 0.795609 3 0 
C 3 -0.795609 2.683901 -1.55874 2.12132 -2.12132 
C 1.55874 -2.683901 0.795609 -3 0 -3 
C -0.795609 -3 -1.55874 -2.683901 -2.12132 -2.12132 
C -2.683901 -1.55874 -3 -0.795609 -3 0 
C -3 0.795609 -2.683901 1.55874 -2.12132 2.12132 
C -1.55874 2.683901 -0.795609 3 0 3 
z
" style="stroke: #9467bd"/>
    </defs>
    <g clip-path="url(#pda9d760198)">
     <use xlink:href="#ma8b073ebd7" x="74.800071" y="418.17317" style="fill: #9467bd; stroke: #9467bd"/>
     <use xlink:href="#ma8b073ebd7" x="246.20095" y="414.365793" style="fill: #9467bd; stroke: #9467bd"/>
     <use xlink:href="#ma8b073ebd7" x="254.55532" y="322.4811" style="fill: #9467bd; stroke: #9467bd"/>
     <use xlink:href="#ma8b073ebd7" x="264.583822" y="278.82318" style="fill: #9467bd; stroke: #9467bd"/>
     <use xlink:href="#ma8b073ebd7" x="267.00167" y="267.908699" style="fill: #9467bd; stroke: #9467bd"/>
     <use xlink:href="#ma8b073ebd7" x="289.137205" y="244.556788" style="fill: #9467bd; stroke: #9467bd"/>
     <use xlink:href="#ma8b073ebd7" x="289.138786" y="244.556788" style="fill: #9467bd; stroke: #9467bd"/>
     <use xlink:href="#ma8b073ebd7" x="290.540104" y="237.70351" style="fill: #9467bd; stroke: #9467bd"/>
     <use xlink:href="#ma8b073ebd7" x="293.114286" y="236.942035" style="fill: #9467bd; stroke: #9467bd"/>
     <use xlink:href="#ma8b073ebd7" x="293.14307" y="236.942035" style="fill: #9467bd; stroke: #9467bd"/>
     <use xlink:href="#ma8b073ebd7" x="310.773528" y="215.113075" style="fill: #9467bd; stroke: #9467bd"/>
     <use xlink:href="#ma8b073ebd7" x="362.298458" y="185.415536" style="fill: #9467bd; stroke: #9467bd"/>
     <use xlink:href="#ma8b073ebd7" x="374.8431" y="165.363351" style="fill: #9467bd; stroke: #9467bd"/>
     <use xlink:href="#ma8b073ebd7" x="388.601965" y="134.904337" style="fill: #9467bd; stroke: #9467bd"/>
     <use xlink:href="#ma8b073ebd7" x="527.790412" y="43.527294" style="fill: #9467bd; stroke: #9467bd"/>
     <use xlink:href="#ma8b073ebd7" x="529.43236" y="57.995326" style="fill: #9467bd; stroke: #9467bd"/>
     <use xlink:href="#ma8b073ebd7" x="548.509605" y="58.249151" style="fill: #9467bd; stroke: #9467bd"/>
     <use xlink:href="#ma8b073ebd7" x="557.796842" y="58.249151" style="fill: #9467bd; stroke: #9467bd"/>
     <use xlink:href="#ma8b073ebd7" x="567.37358" y="55.964725" style="fill: #9467bd; stroke: #9467bd"/>
     <use xlink:href="#ma8b073ebd7" x="576.879701" y="48.349971" style="fill: #9467bd; stroke: #9467bd"/>
     <use xlink:href="#ma8b073ebd7" x="580.037944" y="47.334671" style="fill: #9467bd; stroke: #9467bd"/>
     <use xlink:href="#ma8b073ebd7" x="581.615128" y="45.30407" style="fill: #9467bd; stroke: #9467bd"/>
    </g>
   </g>
   <g id="patch_3">
    <path d="M 48.13 436.905464 
L 48.13 24.795 
" style="fill: none; stroke: #cccccc; stroke-linejoin: miter; stroke-linecap: square"/>
   </g>
   <g id="patch_4">
    <path d="M 631.34 436.905464 
L 631.34 24.795 
" style="fill: none; stroke: #cccccc; stroke-linejoin: miter; stroke-linecap: square"/>
   </g>
   <g id="patch_5">
    <path d="M 48.13 436.905464 
L 631.34 436.905464 
" style="fill: none; stroke: #cccccc; stroke-linejoin: miter; stroke-linecap: square"/>
   </g>
   <g id="patch_6">
    <path d="M 48.13 24.795 
L 631.34 24.795 
" style="fill: none; stroke: #cccccc; stroke-linejoin: miter; stroke-linecap: square"/>
   </g>
   <g id="text_16">
    <!-- Multi-File Line Count History -->
    <g style="fill: #262626" transform="translate(239.26375 18.795) scale(0.16 -0.16)">
     <defs>
      <path id="LiberationSans-4d" d="M 4269 0 
L 4269 2938 
Q 4269 3425 4297 3875 
Q 4144 3316 4022 3000 
L 2884 0 
L 2466 0 
L 1313 3000 
L 1138 3531 
L 1034 3875 
L 1044 3528 
L 1056 2938 
L 1056 0 
L 525 0 
L 525 4403 
L 1309 4403 
L 2481 1350 
Q 2544 1166 2601 955 
Q 2659 744 2678 650 
Q 2703 775 2783 1029 
Q 2863 1284 2891 1350 
L 4041 4403 
L 4806 4403 
L 4806 0 
L 4269 0 
z
" transform="scale(0.015625)"/>
      <path id="LiberationSans-75" d="M 981 3381 
L 981 1238 
Q 981 903 1047 718 
Q 1113 534 1256 453 
Q 1400 372 1678 372 
Q 2084 372 2318 650 
Q 2553 928 2553 1422 
L 2553 3381 
L 3116 3381 
L 3116 722 
Q 3116 131 3134 0 
L 2603 0 
Q 2600 16 2597 84 
Q 2594 153 2589 242 
Q 2584 331 2578 578 
L 2569 578 
Q 2375 228 2120 82 
Q 1866 -63 1488 -63 
Q 931 -63 673 214 
Q 416 491 416 1128 
L 416 3381 
L 981 3381 
z
" transform="scale(0.015625)"/>
      <path id="LiberationSans-6c" d="M 431 0 
L 431 4638 
L 994 4638 
L 994 0 
L 431 0 
z
" transform="scale(0.015625)"/>
      <path id="LiberationSans-46" d="M 1122 3916 
L 1122 2278 
L 3578 2278 
L 3578 1784 
L 1122 1784 
L 1122 0 
L 525 0 
L 525 4403 
L 3653 4403 
L 3653 3916 
L 1122 3916 
z
" transform="scale(0.015625)"/>
      <path id="LiberationSans-48" d="M 3503 0 
L 3503 2041 
L 1122 2041 
L 1122 0 
L 525 0 
L 525 4403 
L 1122 4403 
L 1122 2541 
L 3503 2541 
L 3503 4403 
L 4100 4403 
L 4100 0 
L 3503 0 
z
" transform="scale(0.015625)"/>
      <path id="LiberationSans-72" d="M 444 0 
L 444 2594 
Q 444 2950 425 3381 
L 956 3381 
Q 981 2806 981 2691 
L 994 2691 
Q 1128 3125 1303 3284 
Q 1478 3444 1797 3444 
Q 1909 3444 2025 3413 
L 2025 2897 
Q 1913 2928 1725 2928 
Q 1375 2928 1190 2626 
Q 1006 2325 1006 1763 
L 1006 0 
L 444 0 
z
" transform="scale(0.015625)"/>
      <path id="LiberationSans-79" d="M 597 -1328 
Q 366 -1328 209 -1294 
L 209 -872 
Q 328 -891 472 -891 
Q 997 -891 1303 -119 
L 1356 16 
L 16 3381 
L 616 3381 
L 1328 1513 
Q 1344 1469 1366 1408 
Q 1388 1347 1506 1000 
Q 1625 653 1634 613 
L 1853 1228 
L 2594 3381 
L 3188 3381 
L 1888 0 
Q 1678 -541 1497 -805 
Q 1316 -1069 1095 -1198 
Q 875 -1328 597 -1328 
z
" transform="scale(0.015625)"/>
     </defs>
     <use xlink:href="#LiberationSans-4d"/>
     <use xlink:href="#LiberationSans-75" transform="translate(83.300781 0)"/>
     <use xlink:href="#LiberationSans-6c" transform="translate(138.916016 0)"/>
     <use xlink:href="#LiberationSans-74" transform="translate(161.132812 0)"/>
     <use xlink:href="#LiberationSans-69" transform="translate(188.916016 0)"/>
     <use xlink:href="#LiberationSans-2d" transform="translate(211.132812 0)"/>
     <use xlink:href="#LiberationSans-46" transform="translate(244.433594 0)"/>
     <use xlink:href="#LiberationSans-69" transform="translate(305.517578 0)"/>
     <use xlink:href="#LiberationSans-6c" transform="translate(327.734375 0)"/>
     <use xlink:href="#LiberationSans-65" transform="translate(349.951172 0)"/>
     <use xlink:href="#LiberationSans-20" transform="translate(405.566406 0)"/>
     <use xlink:href="#LiberationSans-4c" transform="translate(433.349609 0)"/>
     <use xlink:href="#LiberationSans-69" transform="translate(488.964844 0)"/>
     <use xlink:href="#LiberationSans-6e" transform="translate(511.181641 0)"/>
     <use xlink:href="#LiberationSans-65" transform="translate(566.796875 0)"/>
     <use xlink:href="#LiberationSans-20" transform="translate(622.412109 0)"/>
     <use xlink:href="#LiberationSans-43" transform="translate(650.195312 0)"/>
     <use xlink:href="#LiberationSans-6f" transform="translate(722.412109 0)"/>
     <use xlink:href="#LiberationSans-75" transform="translate(778.027344 0)"/>
     <use xlink:href="#LiberationSans-6e" transform="translate(833.642578 0)"/>
     <use xlink:href="#LiberationSans-74" transform="translate(889.257812 0)"/>
     <use xlink:href="#LiberationSans-20" transform="translate(917.041016 0)"/>
     <use xlink:href="#LiberationSans-48" transform="translate(944.824219 0)"/>
     <use xlink:href="#LiberationSans-69" transform="translate(1017.041016 0)"/>
     <use xlink:href="#LiberationSans-73" transform="translate(1039.257812 0)"/>
     <use xlink:href="#LiberationSans-74" transform="translate(1089.257812 0)"/>
     <use xlink:href="#LiberationSans-6f" transform="translate(1117.041016 0)"/>
     <use xlink:href="#LiberationSans-72" transform="translate(1172.65625 0)"/>
     <use xlink:href="#LiberationSans-79" transform="translate(1205.957031 0)"/>
    </g>
   </g>
   <g id="legend_1">
    <g id="line2d_32">
     <path d="M 640.34 37.541875 
L 650.34 37.541875 
L 660.34 37.541875 
" style="fill: none; stroke: #1f77b4; stroke-width: 1.5; stroke-linecap: round"/>
     <g>
      <use xlink:href="#mce9de84248" x="650.34" y="37.541875" style="fill: #1f77b4; stroke: #1f77b4"/>
     </g>
    </g>
    <g id="text_17">
     <!-- Hashimoto -->
     <g style="fill: #262626" transform="translate(668.34 41.041875) scale(0.1 -0.1)">
      <defs>
       <path id="LiberationSans-68" d="M 991 2803 
Q 1172 3134 1426 3289 
Q 1681 3444 2072 3444 
Q 2622 3444 2883 3170 
Q 3144 2897 3144 2253 
L 3144 0 
L 2578 0 
L 2578 2144 
Q 2578 2500 2512 2673 
Q 2447 2847 2297 2928 
Q 2147 3009 1881 3009 
Q 1484 3009 1245 2734 
Q 1006 2459 1006 1994 
L 1006 0 
L 444 0 
L 444 4638 
L 1006 4638 
L 1006 3431 
Q 1006 3241 995 3037 
Q 984 2834 981 2803 
L 991 2803 
z
" transform="scale(0.015625)"/>
      </defs>
      <use xlink:href="#LiberationSans-48"/>
      <use xlink:href="#LiberationSans-61" transform="translate(72.216797 0)"/>
      <use xlink:href="#LiberationSans-73" transform="translate(127.832031 0)"/>
      <use xlink:href="#LiberationSans-68" transform="translate(177.832031 0)"/>
      <use xlink:href="#LiberationSans-69" transform="translate(233.447266 0)"/>
      <use xlink:href="#LiberationSans-6d" transform="translate(255.664062 0)"/>
      <use xlink:href="#LiberationSans-6f" transform="translate(338.964844 0)"/>
      <use xlink:href="#LiberationSans-74" transform="translate(394.580078 0)"/>
      <use xlink:href="#LiberationSans-6f" transform="translate(422.363281 0)"/>
     </g>
    </g>
    <g id="line2d_33">
     <path d="M 640.34 51.86375 
L 650.34 51.86375 
L 660.34 51.86375 
" style="fill: none; stroke: #ff7f0e; stroke-width: 1.5; stroke-linecap: round"/>
     <g>
      <use xlink:href="#m5ccdd67517" x="650.34" y="51.86375" style="fill: #ff7f0e; stroke: #ff7f0e"/>
     </g>
    </g>
    <g id="text_18">
     <!-- Noguchi -->
     <g style="fill: #262626" transform="translate(668.34 55.36375) scale(0.1 -0.1)">
      <defs>
       <path id="LiberationSans-4e" d="M 3381 0 
L 1025 3750 
L 1041 3447 
L 1056 2925 
L 1056 0 
L 525 0 
L 525 4403 
L 1219 4403 
L 3600 628 
Q 3563 1241 3563 1516 
L 3563 4403 
L 4100 4403 
L 4100 0 
L 3381 0 
z
" transform="scale(0.015625)"/>
       <path id="LiberationSans-67" d="M 1713 -1328 
Q 1159 -1328 831 -1111 
Q 503 -894 409 -494 
L 975 -413 
Q 1031 -647 1223 -773 
Q 1416 -900 1728 -900 
Q 2569 -900 2569 84 
L 2569 628 
L 2563 628 
Q 2403 303 2125 139 
Q 1847 -25 1475 -25 
Q 853 -25 561 387 
Q 269 800 269 1684 
Q 269 2581 583 3007 
Q 897 3434 1538 3434 
Q 1897 3434 2161 3270 
Q 2425 3106 2569 2803 
L 2575 2803 
Q 2575 2897 2587 3128 
Q 2600 3359 2613 3381 
L 3147 3381 
Q 3128 3213 3128 2681 
L 3128 97 
Q 3128 -1328 1713 -1328 
z
M 2569 1691 
Q 2569 2103 2456 2401 
Q 2344 2700 2139 2858 
Q 1934 3016 1675 3016 
Q 1244 3016 1047 2703 
Q 850 2391 850 1691 
Q 850 997 1034 694 
Q 1219 391 1666 391 
Q 1931 391 2137 547 
Q 2344 703 2456 995 
Q 2569 1288 2569 1691 
z
" transform="scale(0.015625)"/>
       <path id="LiberationSans-63" d="M 859 1706 
Q 859 1031 1071 706 
Q 1284 381 1713 381 
Q 2013 381 2214 543 
Q 2416 706 2463 1044 
L 3031 1006 
Q 2966 519 2616 228 
Q 2266 -63 1728 -63 
Q 1019 -63 645 385 
Q 272 834 272 1694 
Q 272 2547 647 2995 
Q 1022 3444 1722 3444 
Q 2241 3444 2583 3175 
Q 2925 2906 3013 2434 
L 2434 2391 
Q 2391 2672 2212 2837 
Q 2034 3003 1706 3003 
Q 1259 3003 1059 2706 
Q 859 2409 859 1706 
z
" transform="scale(0.015625)"/>
      </defs>
      <use xlink:href="#LiberationSans-4e"/>
      <use xlink:href="#LiberationSans-6f" transform="translate(72.216797 0)"/>
      <use xlink:href="#LiberationSans-67" transform="translate(127.832031 0)"/>
      <use xlink:href="#LiberationSans-75" transform="translate(183.447266 0)"/>
      <use xlink:href="#LiberationSans-63" transform="translate(239.0625 0)"/>
      <use xlink:href="#LiberationSans-68" transform="translate(289.0625 0)"/>
      <use xlink:href="#LiberationSans-69" transform="translate(344.677734 0)"/>
     </g>
    </g>
    <g id="line2d_34">
     <path d="M 640.34 66.185625 
L 650.34 66.185625 
L 660.34 66.185625 
" style="fill: none; stroke: #2ca02c; stroke-width: 1.5; stroke-linecap: round"/>
     <g>
      <use xlink:href="#mc994d31f9f" x="650.34" y="66.185625" style="fill: #2ca02c; stroke: #2ca02c"/>
     </g>
    </g>
    <g id="text_19">
     <!-- Toyoshima -->
     <g style="fill: #262626" transform="translate(668.34 69.685625) scale(0.1 -0.1)">
      <use xlink:href="#LiberationSans-54"/>
      <use xlink:href="#LiberationSans-6f" transform="translate(49.958984 0)"/>
      <use xlink:href="#LiberationSans-79" transform="translate(105.574219 0)"/>
      <use xlink:href="#LiberationSans-6f" transform="translate(155.574219 0)"/>
      <use xlink:href="#LiberationSans-73" transform="translate(211.189453 0)"/>
      <use xlink:href="#LiberationSans-68" transform="translate(261.189453 0)"/>
      <use xlink:href="#LiberationSans-69" transform="translate(316.804688 0)"/>
      <use xlink:href="#LiberationSans-6d" transform="translate(339.021484 0)"/>
      <use xlink:href="#LiberationSans-61" transform="translate(422.322266 0)"/>
     </g>
    </g>
    <g id="line2d_35">
     <path d="M 640.34 80.5075 
L 650.34 80.5075 
L 660.34 80.5075 
" style="fill: none; stroke: #d62728; stroke-width: 1.5; stroke-linecap: round"/>
     <g>
      <use xlink:href="#m88ac457891" x="650.34" y="80.5075" style="fill: #d62728; stroke: #d62728"/>
     </g>
    </g>
    <g id="text_20">
     <!-- Yoshida -->
     <g style="fill: #262626" transform="translate(668.34 84.0075) scale(0.1 -0.1)">
      <defs>
       <path id="LiberationSans-59" d="M 2428 1825 
L 2428 0 
L 1834 0 
L 1834 1825 
L 141 4403 
L 797 4403 
L 2138 2306 
L 3472 4403 
L 4128 4403 
L 2428 1825 
z
" transform="scale(0.015625)"/>
      </defs>
      <use xlink:href="#LiberationSans-59"/>
      <use xlink:href="#LiberationSans-6f" transform="translate(57.574219 0)"/>
      <use xlink:href="#LiberationSans-73" transform="translate(113.189453 0)"/>
      <use xlink:href="#LiberationSans-68" transform="translate(163.189453 0)"/>
      <use xlink:href="#LiberationSans-69" transform="translate(218.804688 0)"/>
      <use xlink:href="#LiberationSans-64" transform="translate(241.021484 0)"/>
      <use xlink:href="#LiberationSans-61" transform="translate(296.636719 0)"/>
     </g>
    </g>
    <g id="line2d_36">
     <path d="M 640.34 94.829375 
L 650.34 94.829375 
L 660.34 94.829375 
" style="fill: none; stroke: #9467bd; stroke-width: 1.5; stroke-linecap: round"/>
     <g>
      <use xlink:href="#ma8b073ebd7" x="650.34" y="94.829375" style="fill: #9467bd; stroke: #9467bd"/>
     </g>
    </g>
    <g id="text_21">
     <!-- Kameoka -->
     <g style="fill: #262626" transform="translate(668.34 98.329375) scale(0.1 -0.1)">
      <defs>
       <path id="LiberationSans-4b" d="M 3456 0 
L 1697 2125 
L 1122 1688 
L 1122 0 
L 525 0 
L 525 4403 
L 1122 4403 
L 1122 2197 
L 3244 4403 
L 3947 4403 
L 2072 2491 
L 4197 0 
L 3456 0 
z
" transform="scale(0.015625)"/>
       <path id="LiberationSans-6b" d="M 2550 0 
L 1406 1544 
L 994 1203 
L 994 0 
L 431 0 
L 431 4638 
L 994 4638 
L 994 1741 
L 2478 3381 
L 3138 3381 
L 1766 1928 
L 3209 0 
L 2550 0 
z
" transform="scale(0.015625)"/>
      </defs>
      <use xlink:href="#LiberationSans-4b"/>
      <use xlink:href="#LiberationSans-61" transform="translate(66.699219 0)"/>
      <use xlink:href="#LiberationSans-6d" transform="translate(122.314453 0)"/>
      <use xlink:href="#LiberationSans-65" transform="translate(205.615234 0)"/>
      <use xlink:href="#LiberationSans-6f" transform="translate(261.230469 0)"/>
      <use xlink:href="#LiberationSans-6b" transform="translate(316.845703 0)"/>
      <use xlink:href="#LiberationSans-61" transform="translate(366.845703 0)"/>
     </g>
    </g>
   </g>
  </g>
 </g>
 <defs>
  <clipPath id="pda9d760198">
   <rect x="48.13" y="24.795" width="583.21" height="412.110464"/>
  </clipPath>
 </defs>
</svg>
