<?xml version="1.0" encoding="utf-8" standalone="no"?>
<!DOCTYPE svg PUBLIC "-//W3C//DTD SVG 1.1//EN"
  "http://www.w3.org/Graphics/SVG/1.1/DTD/svg11.dtd">
<svg xmlns:xlink="http://www.w3.org/1999/xlink" width="727.264375pt" height="496.438132pt" viewBox="0 0 727.264375 496.438132" xmlns="http://www.w3.org/2000/svg" version="1.1">
 <metadata>
  <rdf:RDF xmlns:dc="http://purl.org/dc/elements/1.1/" xmlns:cc="http://creativecommons.org/ns#" xmlns:rdf="http://www.w3.org/1999/02/22-rdf-syntax-ns#">
   <cc:Work>
    <dc:type rdf:resource="http://purl.org/dc/dcmitype/StillImage"/>
    <dc:date>2025-10-31T11:56:34.111267</dc:date>
    <dc:format>image/svg+xml</dc:format>
    <dc:creator>
     <cc:Agent>
      <dc:title>Matplotlib v3.10.7, https://matplotlib.org/</dc:title>
     </cc:Agent>
    </dc:creator>
   </cc:Work>
  </rdf:RDF>
 </metadata>
 <defs>
  <style type="text/css">*{stroke-linejoin: round; stroke-linecap: butt}</style>
 </defs>
 <g id="figure_1">
  <g id="patch_1">
   <path d="M 0 496.438132 
L 727.264375 496.438132 
L 727.264375 0 
L 0 0 
z
" style="fill: #ffffff"/>
  </g>
  <g id="axes_1">
   <g id="patch_2">
    <path d="M 42.569063 436.905464 
L 631.269063 436.905464 
L 631.269063 24.795 
L 42.569063 24.795 
z
" style="fill: #ffffff"/>
   </g>
   <g id="matplotlib.axis_1">
    <g id="xtick_1">
     <g id="line2d_1">
      <path d="M 56.66678 436.905464 
L 56.66678 24.795 
" clip-path="url(#p7f773fc5da)" style="fill: none; stroke-dasharray: 2.96,1.28; stroke-dashoffset: 0; stroke: #cccccc; stroke-opacity: 0.7; stroke-width: 0.8"/>
     </g>
     <g id="line2d_2"/>
     <g id="text_1">
      <!-- 2025-10-17 -->
      <g style="fill: #262626" transform="translate(11.334787 472.254879) rotate(-30) scale(0.1 -0.1)">
       <defs>
        <path id="LiberationSans-32" d="M 322 0 
L 322 397 
Q 481 763 711 1042 
Q 941 1322 1194 1548 
Q 1447 1775 1695 1969 
Q 1944 2163 2144 2356 
Q 2344 2550 2467 2762 
Q 2591 2975 2591 3244 
Q 2591 3606 2378 3806 
Q 2166 4006 1788 4006 
Q 1428 4006 1195 3811 
Q 963 3616 922 3263 
L 347 3316 
Q 409 3844 795 4156 
Q 1181 4469 1788 4469 
Q 2453 4469 2811 4155 
Q 3169 3841 3169 3263 
Q 3169 3006 3051 2753 
Q 2934 2500 2703 2247 
Q 2472 1994 1819 1463 
Q 1459 1169 1246 933 
Q 1034 697 941 478 
L 3238 478 
L 3238 0 
L 322 0 
z
" transform="scale(0.015625)"/>
        <path id="LiberationSans-30" d="M 3309 2203 
Q 3309 1100 2920 518 
Q 2531 -63 1772 -63 
Q 1013 -63 631 515 
Q 250 1094 250 2203 
Q 250 3338 620 3903 
Q 991 4469 1791 4469 
Q 2569 4469 2939 3897 
Q 3309 3325 3309 2203 
z
M 2738 2203 
Q 2738 3156 2517 3584 
Q 2297 4013 1791 4013 
Q 1272 4013 1045 3591 
Q 819 3169 819 2203 
Q 819 1266 1048 831 
Q 1278 397 1778 397 
Q 2275 397 2506 840 
Q 2738 1284 2738 2203 
z
" transform="scale(0.015625)"/>
        <path id="LiberationSans-35" d="M 3291 1434 
Q 3291 738 2877 337 
Q 2463 -63 1728 -63 
Q 1113 -63 734 206 
Q 356 475 256 984 
L 825 1050 
Q 1003 397 1741 397 
Q 2194 397 2450 670 
Q 2706 944 2706 1422 
Q 2706 1838 2448 2094 
Q 2191 2350 1753 2350 
Q 1525 2350 1328 2278 
Q 1131 2206 934 2034 
L 384 2034 
L 531 4403 
L 3034 4403 
L 3034 3925 
L 1044 3925 
L 959 2528 
Q 1325 2809 1869 2809 
Q 2519 2809 2905 2428 
Q 3291 2047 3291 1434 
z
" transform="scale(0.015625)"/>
        <path id="LiberationSans-2d" d="M 284 1450 
L 284 1950 
L 1847 1950 
L 1847 1450 
L 284 1450 
z
" transform="scale(0.015625)"/>
        <path id="LiberationSans-31" d="M 488 0 
L 488 478 
L 1609 478 
L 1609 3866 
L 616 3156 
L 616 3688 
L 1656 4403 
L 2175 4403 
L 2175 478 
L 3247 478 
L 3247 0 
L 488 0 
z
" transform="scale(0.015625)"/>
        <path id="LiberationSans-37" d="M 3238 3947 
Q 2563 2916 2284 2331 
Q 2006 1747 1867 1178 
Q 1728 609 1728 0 
L 1141 0 
Q 1141 844 1498 1776 
Q 1856 2709 2694 3925 
L 328 3925 
L 328 4403 
L 3238 4403 
L 3238 3947 
z
" transform="scale(0.015625)"/>
       </defs>
       <use xlink:href="#LiberationSans-32"/>
       <use xlink:href="#LiberationSans-30" transform="translate(55.615234 0)"/>
       <use xlink:href="#LiberationSans-32" transform="translate(111.230469 0)"/>
       <use xlink:href="#LiberationSans-35" transform="translate(166.845703 0)"/>
       <use xlink:href="#LiberationSans-2d" transform="translate(222.460938 0)"/>
       <use xlink:href="#LiberationSans-31" transform="translate(255.761719 0)"/>
       <use xlink:href="#LiberationSans-30" transform="translate(311.376953 0)"/>
       <use xlink:href="#LiberationSans-2d" transform="translate(366.992188 0)"/>
       <use xlink:href="#LiberationSans-31" transform="translate(400.292969 0)"/>
       <use xlink:href="#LiberationSans-37" transform="translate(455.908203 0)"/>
      </g>
     </g>
    </g>
    <g id="xtick_2">
     <g id="line2d_3">
      <path d="M 132.246622 436.905464 
L 132.246622 24.795 
" clip-path="url(#p7f773fc5da)" style="fill: none; stroke-dasharray: 2.96,1.28; stroke-dashoffset: 0; stroke: #cccccc; stroke-opacity: 0.7; stroke-width: 0.8"/>
     </g>
     <g id="line2d_4"/>
     <g id="text_2">
      <!-- 2025-10-19 -->
      <g style="fill: #262626" transform="translate(86.914629 472.254879) rotate(-30) scale(0.1 -0.1)">
       <defs>
        <path id="LiberationSans-39" d="M 3256 2291 
Q 3256 1156 2842 546 
Q 2428 -63 1663 -63 
Q 1147 -63 836 154 
Q 525 372 391 856 
L 928 941 
Q 1097 391 1672 391 
Q 2156 391 2422 841 
Q 2688 1291 2700 2125 
Q 2575 1844 2272 1673 
Q 1969 1503 1606 1503 
Q 1013 1503 656 1909 
Q 300 2316 300 2988 
Q 300 3678 687 4073 
Q 1075 4469 1766 4469 
Q 2500 4469 2878 3925 
Q 3256 3381 3256 2291 
z
M 2644 2834 
Q 2644 3366 2400 3689 
Q 2156 4013 1747 4013 
Q 1341 4013 1106 3736 
Q 872 3459 872 2988 
Q 872 2506 1106 2226 
Q 1341 1947 1741 1947 
Q 1984 1947 2193 2058 
Q 2403 2169 2523 2372 
Q 2644 2575 2644 2834 
z
" transform="scale(0.015625)"/>
       </defs>
       <use xlink:href="#LiberationSans-32"/>
       <use xlink:href="#LiberationSans-30" transform="translate(55.615234 0)"/>
       <use xlink:href="#LiberationSans-32" transform="translate(111.230469 0)"/>
       <use xlink:href="#LiberationSans-35" transform="translate(166.845703 0)"/>
       <use xlink:href="#LiberationSans-2d" transform="translate(222.460938 0)"/>
       <use xlink:href="#LiberationSans-31" transform="translate(255.761719 0)"/>
       <use xlink:href="#LiberationSans-30" transform="translate(311.376953 0)"/>
       <use xlink:href="#LiberationSans-2d" transform="translate(366.992188 0)"/>
       <use xlink:href="#LiberationSans-31" transform="translate(400.292969 0)"/>
       <use xlink:href="#LiberationSans-39" transform="translate(455.908203 0)"/>
      </g>
     </g>
    </g>
    <g id="xtick_3">
     <g id="line2d_5">
      <path d="M 207.826463 436.905464 
L 207.826463 24.795 
" clip-path="url(#p7f773fc5da)" style="fill: none; stroke-dasharray: 2.96,1.28; stroke-dashoffset: 0; stroke: #cccccc; stroke-opacity: 0.7; stroke-width: 0.8"/>
     </g>
     <g id="line2d_6"/>
     <g id="text_3">
      <!-- 2025-10-21 -->
      <g style="fill: #262626" transform="translate(162.49447 472.254879) rotate(-30) scale(0.1 -0.1)">
       <use xlink:href="#LiberationSans-32"/>
       <use xlink:href="#LiberationSans-30" transform="translate(55.615234 0)"/>
       <use xlink:href="#LiberationSans-32" transform="translate(111.230469 0)"/>
       <use xlink:href="#LiberationSans-35" transform="translate(166.845703 0)"/>
       <use xlink:href="#LiberationSans-2d" transform="translate(222.460938 0)"/>
       <use xlink:href="#LiberationSans-31" transform="translate(255.761719 0)"/>
       <use xlink:href="#LiberationSans-30" transform="translate(311.376953 0)"/>
       <use xlink:href="#LiberationSans-2d" transform="translate(366.992188 0)"/>
       <use xlink:href="#LiberationSans-32" transform="translate(400.292969 0)"/>
       <use xlink:href="#LiberationSans-31" transform="translate(455.908203 0)"/>
      </g>
     </g>
    </g>
    <g id="xtick_4">
     <g id="line2d_7">
      <path d="M 283.406304 436.905464 
L 283.406304 24.795 
" clip-path="url(#p7f773fc5da)" style="fill: none; stroke-dasharray: 2.96,1.28; stroke-dashoffset: 0; stroke: #cccccc; stroke-opacity: 0.7; stroke-width: 0.8"/>
     </g>
     <g id="line2d_8"/>
     <g id="text_4">
      <!-- 2025-10-23 -->
      <g style="fill: #262626" transform="translate(238.074311 472.254879) rotate(-30) scale(0.1 -0.1)">
       <defs>
        <path id="LiberationSans-33" d="M 3278 1216 
Q 3278 606 2890 271 
Q 2503 -63 1784 -63 
Q 1116 -63 717 239 
Q 319 541 244 1131 
L 825 1184 
Q 938 403 1784 403 
Q 2209 403 2451 612 
Q 2694 822 2694 1234 
Q 2694 1594 2417 1795 
Q 2141 1997 1619 1997 
L 1300 1997 
L 1300 2484 
L 1606 2484 
Q 2069 2484 2323 2686 
Q 2578 2888 2578 3244 
Q 2578 3597 2370 3801 
Q 2163 4006 1753 4006 
Q 1381 4006 1151 3815 
Q 922 3625 884 3278 
L 319 3322 
Q 381 3863 767 4166 
Q 1153 4469 1759 4469 
Q 2422 4469 2789 4161 
Q 3156 3853 3156 3303 
Q 3156 2881 2920 2617 
Q 2684 2353 2234 2259 
L 2234 2247 
Q 2728 2194 3003 1916 
Q 3278 1638 3278 1216 
z
" transform="scale(0.015625)"/>
       </defs>
       <use xlink:href="#LiberationSans-32"/>
       <use xlink:href="#LiberationSans-30" transform="translate(55.615234 0)"/>
       <use xlink:href="#LiberationSans-32" transform="translate(111.230469 0)"/>
       <use xlink:href="#LiberationSans-35" transform="translate(166.845703 0)"/>
       <use xlink:href="#LiberationSans-2d" transform="translate(222.460938 0)"/>
       <use xlink:href="#LiberationSans-31" transform="translate(255.761719 0)"/>
       <use xlink:href="#LiberationSans-30" transform="translate(311.376953 0)"/>
       <use xlink:href="#LiberationSans-2d" transform="translate(366.992188 0)"/>
       <use xlink:href="#LiberationSans-32" transform="translate(400.292969 0)"/>
       <use xlink:href="#LiberationSans-33" transform="translate(455.908203 0)"/>
      </g>
     </g>
    </g>
    <g id="xtick_5">
     <g id="line2d_9">
      <path d="M 358.986145 436.905464 
L 358.986145 24.795 
" clip-path="url(#p7f773fc5da)" style="fill: none; stroke-dasharray: 2.96,1.28; stroke-dashoffset: 0; stroke: #cccccc; stroke-opacity: 0.7; stroke-width: 0.8"/>
     </g>
     <g id="line2d_10"/>
     <g id="text_5">
      <!-- 2025-10-25 -->
      <g style="fill: #262626" transform="translate(313.654152 472.254879) rotate(-30) scale(0.1 -0.1)">
       <use xlink:href="#LiberationSans-32"/>
       <use xlink:href="#LiberationSans-30" transform="translate(55.615234 0)"/>
       <use xlink:href="#LiberationSans-32" transform="translate(111.230469 0)"/>
       <use xlink:href="#LiberationSans-35" transform="translate(166.845703 0)"/>
       <use xlink:href="#LiberationSans-2d" transform="translate(222.460938 0)"/>
       <use xlink:href="#LiberationSans-31" transform="translate(255.761719 0)"/>
       <use xlink:href="#LiberationSans-30" transform="translate(311.376953 0)"/>
       <use xlink:href="#LiberationSans-2d" transform="translate(366.992188 0)"/>
       <use xlink:href="#LiberationSans-32" transform="translate(400.292969 0)"/>
       <use xlink:href="#LiberationSans-35" transform="translate(455.908203 0)"/>
      </g>
     </g>
    </g>
    <g id="xtick_6">
     <g id="line2d_11">
      <path d="M 434.565987 436.905464 
L 434.565987 24.795 
" clip-path="url(#p7f773fc5da)" style="fill: none; stroke-dasharray: 2.96,1.28; stroke-dashoffset: 0; stroke: #cccccc; stroke-opacity: 0.7; stroke-width: 0.8"/>
     </g>
     <g id="line2d_12"/>
     <g id="text_6">
      <!-- 2025-10-27 -->
      <g style="fill: #262626" transform="translate(389.233994 472.254879) rotate(-30) scale(0.1 -0.1)">
       <use xlink:href="#LiberationSans-32"/>
       <use xlink:href="#LiberationSans-30" transform="translate(55.615234 0)"/>
       <use xlink:href="#LiberationSans-32" transform="translate(111.230469 0)"/>
       <use xlink:href="#LiberationSans-35" transform="translate(166.845703 0)"/>
       <use xlink:href="#LiberationSans-2d" transform="translate(222.460938 0)"/>
       <use xlink:href="#LiberationSans-31" transform="translate(255.761719 0)"/>
       <use xlink:href="#LiberationSans-30" transform="translate(311.376953 0)"/>
       <use xlink:href="#LiberationSans-2d" transform="translate(366.992188 0)"/>
       <use xlink:href="#LiberationSans-32" transform="translate(400.292969 0)"/>
       <use xlink:href="#LiberationSans-37" transform="translate(455.908203 0)"/>
      </g>
     </g>
    </g>
    <g id="xtick_7">
     <g id="line2d_13">
      <path d="M 510.145828 436.905464 
L 510.145828 24.795 
" clip-path="url(#p7f773fc5da)" style="fill: none; stroke-dasharray: 2.96,1.28; stroke-dashoffset: 0; stroke: #cccccc; stroke-opacity: 0.7; stroke-width: 0.8"/>
     </g>
     <g id="line2d_14"/>
     <g id="text_7">
      <!-- 2025-10-29 -->
      <g style="fill: #262626" transform="translate(464.813835 472.254879) rotate(-30) scale(0.1 -0.1)">
       <use xlink:href="#LiberationSans-32"/>
       <use xlink:href="#LiberationSans-30" transform="translate(55.615234 0)"/>
       <use xlink:href="#LiberationSans-32" transform="translate(111.230469 0)"/>
       <use xlink:href="#LiberationSans-35" transform="translate(166.845703 0)"/>
       <use xlink:href="#LiberationSans-2d" transform="translate(222.460938 0)"/>
       <use xlink:href="#LiberationSans-31" transform="translate(255.761719 0)"/>
       <use xlink:href="#LiberationSans-30" transform="translate(311.376953 0)"/>
       <use xlink:href="#LiberationSans-2d" transform="translate(366.992188 0)"/>
       <use xlink:href="#LiberationSans-32" transform="translate(400.292969 0)"/>
       <use xlink:href="#LiberationSans-39" transform="translate(455.908203 0)"/>
      </g>
     </g>
    </g>
    <g id="xtick_8">
     <g id="line2d_15">
      <path d="M 585.725669 436.905464 
L 585.725669 24.795 
" clip-path="url(#p7f773fc5da)" style="fill: none; stroke-dasharray: 2.96,1.28; stroke-dashoffset: 0; stroke: #cccccc; stroke-opacity: 0.7; stroke-width: 0.8"/>
     </g>
     <g id="line2d_16"/>
     <g id="text_8">
      <!-- 2025-10-31 -->
      <g style="fill: #262626" transform="translate(540.393676 472.254879) rotate(-30) scale(0.1 -0.1)">
       <use xlink:href="#LiberationSans-32"/>
       <use xlink:href="#LiberationSans-30" transform="translate(55.615234 0)"/>
       <use xlink:href="#LiberationSans-32" transform="translate(111.230469 0)"/>
       <use xlink:href="#LiberationSans-35" transform="translate(166.845703 0)"/>
       <use xlink:href="#LiberationSans-2d" transform="translate(222.460938 0)"/>
       <use xlink:href="#LiberationSans-31" transform="translate(255.761719 0)"/>
       <use xlink:href="#LiberationSans-30" transform="translate(311.376953 0)"/>
       <use xlink:href="#LiberationSans-2d" transform="translate(366.992188 0)"/>
       <use xlink:href="#LiberationSans-33" transform="translate(400.292969 0)"/>
       <use xlink:href="#LiberationSans-31" transform="translate(455.908203 0)"/>
      </g>
     </g>
    </g>
    <g id="xtick_9">
     <g id="line2d_17">
      <path d="M 623.51559 436.905464 
L 623.51559 24.795 
" clip-path="url(#p7f773fc5da)" style="fill: none; stroke-dasharray: 2.96,1.28; stroke-dashoffset: 0; stroke: #cccccc; stroke-opacity: 0.7; stroke-width: 0.8"/>
     </g>
     <g id="line2d_18"/>
     <g id="text_9">
      <!-- 2025-11-01 -->
      <g style="fill: #262626" transform="translate(578.822291 471.886129) rotate(-30) scale(0.1 -0.1)">
       <use xlink:href="#LiberationSans-32"/>
       <use xlink:href="#LiberationSans-30" transform="translate(55.615234 0)"/>
       <use xlink:href="#LiberationSans-32" transform="translate(111.230469 0)"/>
       <use xlink:href="#LiberationSans-35" transform="translate(166.845703 0)"/>
       <use xlink:href="#LiberationSans-2d" transform="translate(222.460938 0)"/>
       <use xlink:href="#LiberationSans-31" transform="translate(255.761719 0)"/>
       <use xlink:href="#LiberationSans-31" transform="translate(304.001953 0)"/>
       <use xlink:href="#LiberationSans-2d" transform="translate(359.617188 0)"/>
       <use xlink:href="#LiberationSans-30" transform="translate(392.917969 0)"/>
       <use xlink:href="#LiberationSans-31" transform="translate(448.533203 0)"/>
      </g>
     </g>
    </g>
    <g id="text_10">
     <!-- Date (Commit Time) -->
     <g style="fill: #262626" transform="translate(283.249062 486.748132) scale(0.12 -0.12)">
      <defs>
       <path id="LiberationSans-44" d="M 4316 2247 
Q 4316 1566 4050 1055 
Q 3784 544 3296 272 
Q 2809 0 2172 0 
L 525 0 
L 525 4403 
L 1981 4403 
Q 3100 4403 3708 3842 
Q 4316 3281 4316 2247 
z
M 3716 2247 
Q 3716 3066 3267 3495 
Q 2819 3925 1969 3925 
L 1122 3925 
L 1122 478 
L 2103 478 
Q 2588 478 2955 690 
Q 3322 903 3519 1303 
Q 3716 1703 3716 2247 
z
" transform="scale(0.015625)"/>
       <path id="LiberationSans-61" d="M 1294 -63 
Q 784 -63 528 206 
Q 272 475 272 944 
Q 272 1469 617 1750 
Q 963 2031 1731 2050 
L 2491 2063 
L 2491 2247 
Q 2491 2659 2316 2837 
Q 2141 3016 1766 3016 
Q 1388 3016 1216 2887 
Q 1044 2759 1009 2478 
L 422 2531 
Q 566 3444 1778 3444 
Q 2416 3444 2737 3151 
Q 3059 2859 3059 2306 
L 3059 850 
Q 3059 600 3125 473 
Q 3191 347 3375 347 
Q 3456 347 3559 369 
L 3559 19 
Q 3347 -31 3125 -31 
Q 2813 -31 2670 133 
Q 2528 297 2509 647 
L 2491 647 
Q 2275 259 1989 98 
Q 1703 -63 1294 -63 
z
M 1422 359 
Q 1731 359 1972 500 
Q 2213 641 2352 886 
Q 2491 1131 2491 1391 
L 2491 1669 
L 1875 1656 
Q 1478 1650 1273 1575 
Q 1069 1500 959 1344 
Q 850 1188 850 934 
Q 850 659 998 509 
Q 1147 359 1422 359 
z
" transform="scale(0.015625)"/>
       <path id="LiberationSans-74" d="M 1731 25 
Q 1453 -50 1163 -50 
Q 488 -50 488 716 
L 488 2972 
L 97 2972 
L 97 3381 
L 509 3381 
L 675 4138 
L 1050 4138 
L 1050 3381 
L 1675 3381 
L 1675 2972 
L 1050 2972 
L 1050 838 
Q 1050 594 1129 495 
Q 1209 397 1406 397 
Q 1519 397 1731 441 
L 1731 25 
z
" transform="scale(0.015625)"/>
       <path id="LiberationSans-65" d="M 863 1572 
Q 863 991 1103 675 
Q 1344 359 1806 359 
Q 2172 359 2392 506 
Q 2613 653 2691 878 
L 3184 738 
Q 2881 -63 1806 -63 
Q 1056 -63 664 384 
Q 272 831 272 1713 
Q 272 2550 664 2997 
Q 1056 3444 1784 3444 
Q 3275 3444 3275 1647 
L 3275 1572 
L 863 1572 
z
M 2694 2003 
Q 2647 2538 2422 2783 
Q 2197 3028 1775 3028 
Q 1366 3028 1127 2754 
Q 888 2481 869 2003 
L 2694 2003 
z
" transform="scale(0.015625)"/>
       <path id="LiberationSans-20" transform="scale(0.015625)"/>
       <path id="LiberationSans-28" d="M 397 1663 
Q 397 2566 680 3284 
Q 963 4003 1550 4638 
L 2094 4638 
Q 1509 3988 1236 3256 
Q 963 2525 963 1656 
Q 963 791 1233 62 
Q 1503 -666 2094 -1325 
L 1550 -1325 
Q 959 -688 678 32 
Q 397 753 397 1650 
L 397 1663 
z
" transform="scale(0.015625)"/>
       <path id="LiberationSans-43" d="M 2475 3981 
Q 1744 3981 1337 3511 
Q 931 3041 931 2222 
Q 931 1413 1354 920 
Q 1778 428 2500 428 
Q 3425 428 3891 1344 
L 4378 1100 
Q 4106 531 3614 234 
Q 3122 -63 2472 -63 
Q 1806 -63 1320 214 
Q 834 491 579 1005 
Q 325 1519 325 2222 
Q 325 3275 894 3872 
Q 1463 4469 2469 4469 
Q 3172 4469 3644 4194 
Q 4116 3919 4338 3378 
L 3772 3191 
Q 3619 3575 3280 3778 
Q 2941 3981 2475 3981 
z
" transform="scale(0.015625)"/>
       <path id="LiberationSans-6f" d="M 3291 1694 
Q 3291 806 2900 371 
Q 2509 -63 1766 -63 
Q 1025 -63 647 389 
Q 269 841 269 1694 
Q 269 3444 1784 3444 
Q 2559 3444 2925 3017 
Q 3291 2591 3291 1694 
z
M 2700 1694 
Q 2700 2394 2492 2711 
Q 2284 3028 1794 3028 
Q 1300 3028 1079 2704 
Q 859 2381 859 1694 
Q 859 1025 1076 689 
Q 1294 353 1759 353 
Q 2266 353 2483 678 
Q 2700 1003 2700 1694 
z
" transform="scale(0.015625)"/>
       <path id="LiberationSans-6d" d="M 2400 0 
L 2400 2144 
Q 2400 2634 2265 2821 
Q 2131 3009 1781 3009 
Q 1422 3009 1212 2734 
Q 1003 2459 1003 1959 
L 1003 0 
L 444 0 
L 444 2659 
Q 444 3250 425 3381 
L 956 3381 
Q 959 3366 962 3297 
Q 966 3228 970 3139 
Q 975 3050 981 2803 
L 991 2803 
Q 1172 3163 1406 3303 
Q 1641 3444 1978 3444 
Q 2363 3444 2586 3291 
Q 2809 3138 2897 2803 
L 2906 2803 
Q 3081 3144 3329 3294 
Q 3578 3444 3931 3444 
Q 4444 3444 4676 3166 
Q 4909 2888 4909 2253 
L 4909 0 
L 4353 0 
L 4353 2144 
Q 4353 2634 4218 2821 
Q 4084 3009 3734 3009 
Q 3366 3009 3161 2736 
Q 2956 2463 2956 1959 
L 2956 0 
L 2400 0 
z
" transform="scale(0.015625)"/>
       <path id="LiberationSans-69" d="M 428 4100 
L 428 4638 
L 991 4638 
L 991 4100 
L 428 4100 
z
M 428 0 
L 428 3381 
L 991 3381 
L 991 0 
L 428 0 
z
" transform="scale(0.015625)"/>
       <path id="LiberationSans-54" d="M 2250 3916 
L 2250 0 
L 1656 0 
L 1656 3916 
L 144 3916 
L 144 4403 
L 3763 4403 
L 3763 3916 
L 2250 3916 
z
" transform="scale(0.015625)"/>
       <path id="LiberationSans-29" d="M 1734 1650 
Q 1734 747 1451 28 
Q 1169 -691 581 -1325 
L 38 -1325 
Q 625 -669 897 57 
Q 1169 784 1169 1656 
Q 1169 2528 895 3256 
Q 622 3984 38 4638 
L 581 4638 
Q 1172 4000 1453 3279 
Q 1734 2559 1734 1663 
L 1734 1650 
z
" transform="scale(0.015625)"/>
      </defs>
      <use xlink:href="#LiberationSans-44"/>
      <use xlink:href="#LiberationSans-61" transform="translate(72.216797 0)"/>
      <use xlink:href="#LiberationSans-74" transform="translate(127.832031 0)"/>
      <use xlink:href="#LiberationSans-65" transform="translate(155.615234 0)"/>
      <use xlink:href="#LiberationSans-20" transform="translate(211.230469 0)"/>
      <use xlink:href="#LiberationSans-28" transform="translate(239.013672 0)"/>
      <use xlink:href="#LiberationSans-43" transform="translate(272.314453 0)"/>
      <use xlink:href="#LiberationSans-6f" transform="translate(344.53125 0)"/>
      <use xlink:href="#LiberationSans-6d" transform="translate(400.146484 0)"/>
      <use xlink:href="#LiberationSans-6d" transform="translate(483.447266 0)"/>
      <use xlink:href="#LiberationSans-69" transform="translate(566.748047 0)"/>
      <use xlink:href="#LiberationSans-74" transform="translate(588.964844 0)"/>
      <use xlink:href="#LiberationSans-20" transform="translate(616.748047 0)"/>
      <use xlink:href="#LiberationSans-54" transform="translate(642.78125 0)"/>
      <use xlink:href="#LiberationSans-69" transform="translate(700.115234 0)"/>
      <use xlink:href="#LiberationSans-6d" transform="translate(722.332031 0)"/>
      <use xlink:href="#LiberationSans-65" transform="translate(805.632812 0)"/>
      <use xlink:href="#LiberationSans-29" transform="translate(861.248047 0)"/>
     </g>
    </g>
   </g>
   <g id="matplotlib.axis_2">
    <g id="ytick_1">
     <g id="line2d_19">
      <path d="M 42.569063 404.094619 
L 631.269063 404.094619 
" clip-path="url(#p7f773fc5da)" style="fill: none; stroke-dasharray: 2.96,1.28; stroke-dashoffset: 0; stroke: #cccccc; stroke-opacity: 0.7; stroke-width: 0.8"/>
     </g>
     <g id="line2d_20"/>
     <g id="text_11">
      <!-- 100 -->
      <g style="fill: #262626" transform="translate(22.38625 407.718057) scale(0.1 -0.1)">
       <use xlink:href="#LiberationSans-31"/>
       <use xlink:href="#LiberationSans-30" transform="translate(55.615234 0)"/>
       <use xlink:href="#LiberationSans-30" transform="translate(111.230469 0)"/>
      </g>
     </g>
    </g>
    <g id="ytick_2">
     <g id="line2d_21">
      <path d="M 42.569063 325.880449 
L 631.269063 325.880449 
" clip-path="url(#p7f773fc5da)" style="fill: none; stroke-dasharray: 2.96,1.28; stroke-dashoffset: 0; stroke: #cccccc; stroke-opacity: 0.7; stroke-width: 0.8"/>
     </g>
     <g id="line2d_22"/>
     <g id="text_12">
      <!-- 200 -->
      <g style="fill: #262626" transform="translate(22.38625 329.503887) scale(0.1 -0.1)">
       <use xlink:href="#LiberationSans-32"/>
       <use xlink:href="#LiberationSans-30" transform="translate(55.615234 0)"/>
       <use xlink:href="#LiberationSans-30" transform="translate(111.230469 0)"/>
      </g>
     </g>
    </g>
    <g id="ytick_3">
     <g id="line2d_23">
      <path d="M 42.569063 247.666279 
L 631.269063 247.666279 
" clip-path="url(#p7f773fc5da)" style="fill: none; stroke-dasharray: 2.96,1.28; stroke-dashoffset: 0; stroke: #cccccc; stroke-opacity: 0.7; stroke-width: 0.8"/>
     </g>
     <g id="line2d_24"/>
     <g id="text_13">
      <!-- 300 -->
      <g style="fill: #262626" transform="translate(22.38625 251.289716) scale(0.1 -0.1)">
       <use xlink:href="#LiberationSans-33"/>
       <use xlink:href="#LiberationSans-30" transform="translate(55.615234 0)"/>
       <use xlink:href="#LiberationSans-30" transform="translate(111.230469 0)"/>
      </g>
     </g>
    </g>
    <g id="ytick_4">
     <g id="line2d_25">
      <path d="M 42.569063 169.452108 
L 631.269063 169.452108 
" clip-path="url(#p7f773fc5da)" style="fill: none; stroke-dasharray: 2.96,1.28; stroke-dashoffset: 0; stroke: #cccccc; stroke-opacity: 0.7; stroke-width: 0.8"/>
     </g>
     <g id="line2d_26"/>
     <g id="text_14">
      <!-- 400 -->
      <g style="fill: #262626" transform="translate(22.38625 173.075546) scale(0.1 -0.1)">
       <defs>
        <path id="LiberationSans-34" d="M 2753 997 
L 2753 0 
L 2222 0 
L 2222 997 
L 147 997 
L 147 1434 
L 2163 4403 
L 2753 4403 
L 2753 1441 
L 3372 1441 
L 3372 997 
L 2753 997 
z
M 2222 3769 
Q 2216 3750 2134 3603 
Q 2053 3456 2013 3397 
L 884 1734 
L 716 1503 
L 666 1441 
L 2222 1441 
L 2222 3769 
z
" transform="scale(0.015625)"/>
       </defs>
       <use xlink:href="#LiberationSans-34"/>
       <use xlink:href="#LiberationSans-30" transform="translate(55.615234 0)"/>
       <use xlink:href="#LiberationSans-30" transform="translate(111.230469 0)"/>
      </g>
     </g>
    </g>
    <g id="ytick_5">
     <g id="line2d_27">
      <path d="M 42.569063 91.237938 
L 631.269063 91.237938 
" clip-path="url(#p7f773fc5da)" style="fill: none; stroke-dasharray: 2.96,1.28; stroke-dashoffset: 0; stroke: #cccccc; stroke-opacity: 0.7; stroke-width: 0.8"/>
     </g>
     <g id="line2d_28"/>
     <g id="text_15">
      <!-- 500 -->
      <g style="fill: #262626" transform="translate(22.38625 94.861375) scale(0.1 -0.1)">
       <use xlink:href="#LiberationSans-35"/>
       <use xlink:href="#LiberationSans-30" transform="translate(55.615234 0)"/>
       <use xlink:href="#LiberationSans-30" transform="translate(111.230469 0)"/>
      </g>
     </g>
    </g>
    <g id="text_16">
     <!-- Lines of Code -->
     <g style="fill: #262626" transform="translate(15.89625 267.873044) rotate(-90) scale(0.12 -0.12)">
      <defs>
       <path id="LiberationSans-4c" d="M 525 0 
L 525 4403 
L 1122 4403 
L 1122 488 
L 3347 488 
L 3347 0 
L 525 0 
z
" transform="scale(0.015625)"/>
       <path id="LiberationSans-6e" d="M 2578 0 
L 2578 2144 
Q 2578 2478 2512 2662 
Q 2447 2847 2303 2928 
Q 2159 3009 1881 3009 
Q 1475 3009 1240 2731 
Q 1006 2453 1006 1959 
L 1006 0 
L 444 0 
L 444 2659 
Q 444 3250 425 3381 
L 956 3381 
Q 959 3366 962 3297 
Q 966 3228 970 3139 
Q 975 3050 981 2803 
L 991 2803 
Q 1184 3153 1439 3298 
Q 1694 3444 2072 3444 
Q 2628 3444 2886 3167 
Q 3144 2891 3144 2253 
L 3144 0 
L 2578 0 
z
" transform="scale(0.015625)"/>
       <path id="LiberationSans-73" d="M 2969 934 
Q 2969 456 2608 196 
Q 2247 -63 1597 -63 
Q 966 -63 623 145 
Q 281 353 178 794 
L 675 891 
Q 747 619 972 492 
Q 1197 366 1597 366 
Q 2025 366 2223 497 
Q 2422 628 2422 891 
Q 2422 1091 2284 1216 
Q 2147 1341 1841 1422 
L 1438 1528 
Q 953 1653 748 1773 
Q 544 1894 428 2066 
Q 313 2238 313 2488 
Q 313 2950 642 3192 
Q 972 3434 1603 3434 
Q 2163 3434 2492 3237 
Q 2822 3041 2909 2606 
L 2403 2544 
Q 2356 2769 2151 2889 
Q 1947 3009 1603 3009 
Q 1222 3009 1040 2893 
Q 859 2778 859 2544 
Q 859 2400 934 2306 
Q 1009 2213 1156 2147 
Q 1303 2081 1775 1966 
Q 2222 1853 2419 1758 
Q 2616 1663 2730 1547 
Q 2844 1431 2906 1279 
Q 2969 1128 2969 934 
z
" transform="scale(0.015625)"/>
       <path id="LiberationSans-66" d="M 1128 2972 
L 1128 0 
L 566 0 
L 566 2972 
L 91 2972 
L 91 3381 
L 566 3381 
L 566 3763 
Q 566 4225 769 4428 
Q 972 4631 1391 4631 
Q 1625 4631 1788 4594 
L 1788 4166 
Q 1647 4191 1538 4191 
Q 1322 4191 1225 4081 
Q 1128 3972 1128 3684 
L 1128 3381 
L 1788 3381 
L 1788 2972 
L 1128 2972 
z
" transform="scale(0.015625)"/>
       <path id="LiberationSans-64" d="M 2566 544 
Q 2409 219 2151 78 
Q 1894 -63 1513 -63 
Q 872 -63 570 368 
Q 269 800 269 1675 
Q 269 3444 1513 3444 
Q 1897 3444 2153 3303 
Q 2409 3163 2566 2856 
L 2572 2856 
L 2566 3234 
L 2566 4638 
L 3128 4638 
L 3128 697 
Q 3128 169 3147 0 
L 2609 0 
Q 2600 50 2589 231 
Q 2578 413 2578 544 
L 2566 544 
z
M 859 1694 
Q 859 984 1046 678 
Q 1234 372 1656 372 
Q 2134 372 2350 703 
Q 2566 1034 2566 1731 
Q 2566 2403 2350 2715 
Q 2134 3028 1663 3028 
Q 1238 3028 1048 2714 
Q 859 2400 859 1694 
z
" transform="scale(0.015625)"/>
      </defs>
      <use xlink:href="#LiberationSans-4c"/>
      <use xlink:href="#LiberationSans-69" transform="translate(55.615234 0)"/>
      <use xlink:href="#LiberationSans-6e" transform="translate(77.832031 0)"/>
      <use xlink:href="#LiberationSans-65" transform="translate(133.447266 0)"/>
      <use xlink:href="#LiberationSans-73" transform="translate(189.0625 0)"/>
      <use xlink:href="#LiberationSans-20" transform="translate(239.0625 0)"/>
      <use xlink:href="#LiberationSans-6f" transform="translate(266.845703 0)"/>
      <use xlink:href="#LiberationSans-66" transform="translate(322.460938 0)"/>
      <use xlink:href="#LiberationSans-20" transform="translate(350.244141 0)"/>
      <use xlink:href="#LiberationSans-43" transform="translate(378.027344 0)"/>
      <use xlink:href="#LiberationSans-6f" transform="translate(450.244141 0)"/>
      <use xlink:href="#LiberationSans-64" transform="translate(505.859375 0)"/>
      <use xlink:href="#LiberationSans-65" transform="translate(561.474609 0)"/>
     </g>
    </g>
   </g>
   <g id="line2d_29">
    <path d="M 69.328153 375.155376 
L 438.055868 249.230562 
L 446.354343 221.855602 
L 465.799531 221.855602 
L 479.392531 210.905619 
L 483.117287 193.698501 
L 483.218323 193.698501 
L 514.714734 97.495071 
L 514.739665 97.495071 
L 516.340051 97.495071 
L 524.771927 94.366505 
L 538.00321 94.366505 
L 556.412675 65.427262 
L 558.334538 58.387986 
L 580.504187 45.091577 
L 589.844071 44.309436 
L 593.986528 43.527294 
L 594.01977 43.527294 
L 594.059571 43.527294 
L 594.115119 43.527294 
L 594.125179 43.527294 
L 597.987274 48.220144 
L 598.938583 51.348711 
L 604.509972 43.527294 
" clip-path="url(#p7f773fc5da)" style="fill: none; stroke: #1f77b4; stroke-width: 1.5; stroke-linecap: round"/>
    <defs>
     <path id="m9791a1724d" d="M 0 3 
C 0.795609 3 1.55874 2.683901 2.12132 2.12132 
C 2.683901 1.55874 3 0.795609 3 0 
C 3 -0.795609 2.683901 -1.55874 2.12132 -2.12132 
C 1.55874 -2.683901 0.795609 -3 0 -3 
C -0.795609 -3 -1.55874 -2.683901 -2.12132 -2.12132 
C -2.683901 -1.55874 -3 -0.795609 -3 0 
C -3 0.795609 -2.683901 1.55874 -2.12132 2.12132 
C -1.55874 2.683901 -0.795609 3 0 3 
z
" style="stroke: #1f77b4"/>
    </defs>
    <g clip-path="url(#p7f773fc5da)">
     <use xlink:href="#m9791a1724d" x="69.328153" y="375.155376" style="fill: #1f77b4; stroke: #1f77b4"/>
     <use xlink:href="#m9791a1724d" x="438.055868" y="249.230562" style="fill: #1f77b4; stroke: #1f77b4"/>
     <use xlink:href="#m9791a1724d" x="446.354343" y="221.855602" style="fill: #1f77b4; stroke: #1f77b4"/>
     <use xlink:href="#m9791a1724d" x="465.799531" y="221.855602" style="fill: #1f77b4; stroke: #1f77b4"/>
     <use xlink:href="#m9791a1724d" x="479.392531" y="210.905619" style="fill: #1f77b4; stroke: #1f77b4"/>
     <use xlink:href="#m9791a1724d" x="483.117287" y="193.698501" style="fill: #1f77b4; stroke: #1f77b4"/>
     <use xlink:href="#m9791a1724d" x="483.218323" y="193.698501" style="fill: #1f77b4; stroke: #1f77b4"/>
     <use xlink:href="#m9791a1724d" x="514.714734" y="97.495071" style="fill: #1f77b4; stroke: #1f77b4"/>
     <use xlink:href="#m9791a1724d" x="514.739665" y="97.495071" style="fill: #1f77b4; stroke: #1f77b4"/>
     <use xlink:href="#m9791a1724d" x="516.340051" y="97.495071" style="fill: #1f77b4; stroke: #1f77b4"/>
     <use xlink:href="#m9791a1724d" x="524.771927" y="94.366505" style="fill: #1f77b4; stroke: #1f77b4"/>
     <use xlink:href="#m9791a1724d" x="538.00321" y="94.366505" style="fill: #1f77b4; stroke: #1f77b4"/>
     <use xlink:href="#m9791a1724d" x="556.412675" y="65.427262" style="fill: #1f77b4; stroke: #1f77b4"/>
     <use xlink:href="#m9791a1724d" x="558.334538" y="58.387986" style="fill: #1f77b4; stroke: #1f77b4"/>
     <use xlink:href="#m9791a1724d" x="580.504187" y="45.091577" style="fill: #1f77b4; stroke: #1f77b4"/>
     <use xlink:href="#m9791a1724d" x="589.844071" y="44.309436" style="fill: #1f77b4; stroke: #1f77b4"/>
     <use xlink:href="#m9791a1724d" x="593.986528" y="43.527294" style="fill: #1f77b4; stroke: #1f77b4"/>
     <use xlink:href="#m9791a1724d" x="594.01977" y="43.527294" style="fill: #1f77b4; stroke: #1f77b4"/>
     <use xlink:href="#m9791a1724d" x="594.059571" y="43.527294" style="fill: #1f77b4; stroke: #1f77b4"/>
     <use xlink:href="#m9791a1724d" x="594.115119" y="43.527294" style="fill: #1f77b4; stroke: #1f77b4"/>
     <use xlink:href="#m9791a1724d" x="594.125179" y="43.527294" style="fill: #1f77b4; stroke: #1f77b4"/>
     <use xlink:href="#m9791a1724d" x="597.987274" y="48.220144" style="fill: #1f77b4; stroke: #1f77b4"/>
     <use xlink:href="#m9791a1724d" x="598.938583" y="51.348711" style="fill: #1f77b4; stroke: #1f77b4"/>
     <use xlink:href="#m9791a1724d" x="604.509972" y="43.527294" style="fill: #1f77b4; stroke: #1f77b4"/>
    </g>
   </g>
   <g id="line2d_30">
    <path d="M 218.227001 245.319853 
L 218.646015 238.280578 
L 221.379223 234.36987 
L 299.247017 227.330594 
L 323.597897 227.330594 
L 335.419494 209.341335 
L 438.055868 192.916359 
L 446.354343 166.323541 
L 479.392531 139.730723 
L 483.117287 139.730723 
L 514.714734 135.820015 
L 516.340051 135.820015 
L 524.771927 121.741464 
L 538.00321 99.841497 
L 556.412675 99.059355 
L 580.504187 98.277213 
L 589.844071 98.277213 
L 593.986528 82.634379 
L 594.01977 82.634379 
L 594.059571 81.070096 
L 594.069631 81.070096 
L 594.115119 81.070096 
L 594.125179 81.070096 
L 597.987274 70.902253 
L 598.961327 71.684395 
L 604.509972 71.684395 
" clip-path="url(#p7f773fc5da)" style="fill: none; stroke: #ff7f0e; stroke-width: 1.5; stroke-linecap: round"/>
    <defs>
     <path id="md9f6fc02c7" d="M 0 3 
C 0.795609 3 1.55874 2.683901 2.12132 2.12132 
C 2.683901 1.55874 3 0.795609 3 0 
C 3 -0.795609 2.683901 -1.55874 2.12132 -2.12132 
C 1.55874 -2.683901 0.795609 -3 0 -3 
C -0.795609 -3 -1.55874 -2.683901 -2.12132 -2.12132 
C -2.683901 -1.55874 -3 -0.795609 -3 0 
C -3 0.795609 -2.683901 1.55874 -2.12132 2.12132 
C -1.55874 2.683901 -0.795609 3 0 3 
z
" style="stroke: #ff7f0e"/>
    </defs>
    <g clip-path="url(#p7f773fc5da)">
     <use xlink:href="#md9f6fc02c7" x="218.227001" y="245.319853" style="fill: #ff7f0e; stroke: #ff7f0e"/>
     <use xlink:href="#md9f6fc02c7" x="218.646015" y="238.280578" style="fill: #ff7f0e; stroke: #ff7f0e"/>
     <use xlink:href="#md9f6fc02c7" x="221.379223" y="234.36987" style="fill: #ff7f0e; stroke: #ff7f0e"/>
     <use xlink:href="#md9f6fc02c7" x="299.247017" y="227.330594" style="fill: #ff7f0e; stroke: #ff7f0e"/>
     <use xlink:href="#md9f6fc02c7" x="323.597897" y="227.330594" style="fill: #ff7f0e; stroke: #ff7f0e"/>
     <use xlink:href="#md9f6fc02c7" x="335.419494" y="209.341335" style="fill: #ff7f0e; stroke: #ff7f0e"/>
     <use xlink:href="#md9f6fc02c7" x="438.055868" y="192.916359" style="fill: #ff7f0e; stroke: #ff7f0e"/>
     <use xlink:href="#md9f6fc02c7" x="446.354343" y="166.323541" style="fill: #ff7f0e; stroke: #ff7f0e"/>
     <use xlink:href="#md9f6fc02c7" x="479.392531" y="139.730723" style="fill: #ff7f0e; stroke: #ff7f0e"/>
     <use xlink:href="#md9f6fc02c7" x="483.117287" y="139.730723" style="fill: #ff7f0e; stroke: #ff7f0e"/>
     <use xlink:href="#md9f6fc02c7" x="514.714734" y="135.820015" style="fill: #ff7f0e; stroke: #ff7f0e"/>
     <use xlink:href="#md9f6fc02c7" x="516.340051" y="135.820015" style="fill: #ff7f0e; stroke: #ff7f0e"/>
     <use xlink:href="#md9f6fc02c7" x="524.771927" y="121.741464" style="fill: #ff7f0e; stroke: #ff7f0e"/>
     <use xlink:href="#md9f6fc02c7" x="538.00321" y="99.841497" style="fill: #ff7f0e; stroke: #ff7f0e"/>
     <use xlink:href="#md9f6fc02c7" x="556.412675" y="99.059355" style="fill: #ff7f0e; stroke: #ff7f0e"/>
     <use xlink:href="#md9f6fc02c7" x="580.504187" y="98.277213" style="fill: #ff7f0e; stroke: #ff7f0e"/>
     <use xlink:href="#md9f6fc02c7" x="589.844071" y="98.277213" style="fill: #ff7f0e; stroke: #ff7f0e"/>
     <use xlink:href="#md9f6fc02c7" x="593.986528" y="82.634379" style="fill: #ff7f0e; stroke: #ff7f0e"/>
     <use xlink:href="#md9f6fc02c7" x="594.01977" y="82.634379" style="fill: #ff7f0e; stroke: #ff7f0e"/>
     <use xlink:href="#md9f6fc02c7" x="594.059571" y="81.070096" style="fill: #ff7f0e; stroke: #ff7f0e"/>
     <use xlink:href="#md9f6fc02c7" x="594.069631" y="81.070096" style="fill: #ff7f0e; stroke: #ff7f0e"/>
     <use xlink:href="#md9f6fc02c7" x="594.115119" y="81.070096" style="fill: #ff7f0e; stroke: #ff7f0e"/>
     <use xlink:href="#md9f6fc02c7" x="594.125179" y="81.070096" style="fill: #ff7f0e; stroke: #ff7f0e"/>
     <use xlink:href="#md9f6fc02c7" x="597.987274" y="70.902253" style="fill: #ff7f0e; stroke: #ff7f0e"/>
     <use xlink:href="#md9f6fc02c7" x="598.961327" y="71.684395" style="fill: #ff7f0e; stroke: #ff7f0e"/>
     <use xlink:href="#md9f6fc02c7" x="604.509972" y="71.684395" style="fill: #ff7f0e; stroke: #ff7f0e"/>
    </g>
   </g>
   <g id="line2d_31">
    <path d="M 173.710125 322.751882 
L 176.658964 318.059032 
L 198.288444 246.101995 
L 218.227001 239.844862 
L 221.379223 238.280578 
L 299.247017 196.044926 
L 323.597897 212.469902 
L 332.167549 209.341335 
L 335.419494 209.341335 
L 446.354343 211.68776 
L 465.799531 199.173493 
L 479.392531 199.173493 
L 483.117287 199.173493 
L 514.714734 142.077149 
L 514.739665 142.077149 
L 516.340051 140.512865 
L 524.771927 92.020079 
L 538.00321 92.020079 
L 556.412675 92.020079 
L 558.334538 88.109371 
L 580.504187 56.041561 
L 589.844071 54.477278 
L 589.854131 54.477278 
L 593.986528 65.427262 
L 597.987274 68.555828 
L 598.938583 68.555828 
L 604.509972 67.773687 
" clip-path="url(#p7f773fc5da)" style="fill: none; stroke: #2ca02c; stroke-width: 1.5; stroke-linecap: round"/>
    <defs>
     <path id="m33c6e1a549" d="M 0 3 
C 0.795609 3 1.55874 2.683901 2.12132 2.12132 
C 2.683901 1.55874 3 0.795609 3 0 
C 3 -0.795609 2.683901 -1.55874 2.12132 -2.12132 
C 1.55874 -2.683901 0.795609 -3 0 -3 
C -0.795609 -3 -1.55874 -2.683901 -2.12132 -2.12132 
C -2.683901 -1.55874 -3 -0.795609 -3 0 
C -3 0.795609 -2.683901 1.55874 -2.12132 2.12132 
C -1.55874 2.683901 -0.795609 3 0 3 
z
" style="stroke: #2ca02c"/>
    </defs>
    <g clip-path="url(#p7f773fc5da)">
     <use xlink:href="#m33c6e1a549" x="173.710125" y="322.751882" style="fill: #2ca02c; stroke: #2ca02c"/>
     <use xlink:href="#m33c6e1a549" x="176.658964" y="318.059032" style="fill: #2ca02c; stroke: #2ca02c"/>
     <use xlink:href="#m33c6e1a549" x="198.288444" y="246.101995" style="fill: #2ca02c; stroke: #2ca02c"/>
     <use xlink:href="#m33c6e1a549" x="218.227001" y="239.844862" style="fill: #2ca02c; stroke: #2ca02c"/>
     <use xlink:href="#m33c6e1a549" x="221.379223" y="238.280578" style="fill: #2ca02c; stroke: #2ca02c"/>
     <use xlink:href="#m33c6e1a549" x="299.247017" y="196.044926" style="fill: #2ca02c; stroke: #2ca02c"/>
     <use xlink:href="#m33c6e1a549" x="323.597897" y="212.469902" style="fill: #2ca02c; stroke: #2ca02c"/>
     <use xlink:href="#m33c6e1a549" x="332.167549" y="209.341335" style="fill: #2ca02c; stroke: #2ca02c"/>
     <use xlink:href="#m33c6e1a549" x="335.419494" y="209.341335" style="fill: #2ca02c; stroke: #2ca02c"/>
     <use xlink:href="#m33c6e1a549" x="446.354343" y="211.68776" style="fill: #2ca02c; stroke: #2ca02c"/>
     <use xlink:href="#m33c6e1a549" x="465.799531" y="199.173493" style="fill: #2ca02c; stroke: #2ca02c"/>
     <use xlink:href="#m33c6e1a549" x="479.392531" y="199.173493" style="fill: #2ca02c; stroke: #2ca02c"/>
     <use xlink:href="#m33c6e1a549" x="483.117287" y="199.173493" style="fill: #2ca02c; stroke: #2ca02c"/>
     <use xlink:href="#m33c6e1a549" x="514.714734" y="142.077149" style="fill: #2ca02c; stroke: #2ca02c"/>
     <use xlink:href="#m33c6e1a549" x="514.739665" y="142.077149" style="fill: #2ca02c; stroke: #2ca02c"/>
     <use xlink:href="#m33c6e1a549" x="516.340051" y="140.512865" style="fill: #2ca02c; stroke: #2ca02c"/>
     <use xlink:href="#m33c6e1a549" x="524.771927" y="92.020079" style="fill: #2ca02c; stroke: #2ca02c"/>
     <use xlink:href="#m33c6e1a549" x="538.00321" y="92.020079" style="fill: #2ca02c; stroke: #2ca02c"/>
     <use xlink:href="#m33c6e1a549" x="556.412675" y="92.020079" style="fill: #2ca02c; stroke: #2ca02c"/>
     <use xlink:href="#m33c6e1a549" x="558.334538" y="88.109371" style="fill: #2ca02c; stroke: #2ca02c"/>
     <use xlink:href="#m33c6e1a549" x="580.504187" y="56.041561" style="fill: #2ca02c; stroke: #2ca02c"/>
     <use xlink:href="#m33c6e1a549" x="589.844071" y="54.477278" style="fill: #2ca02c; stroke: #2ca02c"/>
     <use xlink:href="#m33c6e1a549" x="589.854131" y="54.477278" style="fill: #2ca02c; stroke: #2ca02c"/>
     <use xlink:href="#m33c6e1a549" x="593.986528" y="65.427262" style="fill: #2ca02c; stroke: #2ca02c"/>
     <use xlink:href="#m33c6e1a549" x="597.987274" y="68.555828" style="fill: #2ca02c; stroke: #2ca02c"/>
     <use xlink:href="#m33c6e1a549" x="598.938583" y="68.555828" style="fill: #2ca02c; stroke: #2ca02c"/>
     <use xlink:href="#m33c6e1a549" x="604.509972" y="67.773687" style="fill: #2ca02c; stroke: #2ca02c"/>
    </g>
   </g>
   <g id="line2d_32">
    <path d="M 69.328153 415.044603 
L 173.710125 418.17317 
L 198.288444 346.998275 
L 218.227001 343.869708 
L 299.247017 343.869708 
L 332.167549 336.830433 
L 335.419494 332.919724 
L 438.055868 308.673332 
L 446.354343 284.426939 
L 465.799531 276.605522 
L 479.392531 272.694813 
L 483.117287 246.101995 
L 514.714734 239.06272 
L 516.340051 236.716295 
L 524.771927 225.766311 
L 538.00321 170.23425 
L 556.412675 125.652173 
L 558.334538 127.998598 
L 580.504187 128.78074 
L 589.844071 131.127165 
L 593.986528 137.384298 
L 597.987274 122.523606 
" clip-path="url(#p7f773fc5da)" style="fill: none; stroke: #d62728; stroke-width: 1.5; stroke-linecap: round"/>
    <defs>
     <path id="m0f962e06e0" d="M 0 3 
C 0.795609 3 1.55874 2.683901 2.12132 2.12132 
C 2.683901 1.55874 3 0.795609 3 0 
C 3 -0.795609 2.683901 -1.55874 2.12132 -2.12132 
C 1.55874 -2.683901 0.795609 -3 0 -3 
C -0.795609 -3 -1.55874 -2.683901 -2.12132 -2.12132 
C -2.683901 -1.55874 -3 -0.795609 -3 0 
C -3 0.795609 -2.683901 1.55874 -2.12132 2.12132 
C -1.55874 2.683901 -0.795609 3 0 3 
z
" style="stroke: #d62728"/>
    </defs>
    <g clip-path="url(#p7f773fc5da)">
     <use xlink:href="#m0f962e06e0" x="69.328153" y="415.044603" style="fill: #d62728; stroke: #d62728"/>
     <use xlink:href="#m0f962e06e0" x="173.710125" y="418.17317" style="fill: #d62728; stroke: #d62728"/>
     <use xlink:href="#m0f962e06e0" x="198.288444" y="346.998275" style="fill: #d62728; stroke: #d62728"/>
     <use xlink:href="#m0f962e06e0" x="218.227001" y="343.869708" style="fill: #d62728; stroke: #d62728"/>
     <use xlink:href="#m0f962e06e0" x="299.247017" y="343.869708" style="fill: #d62728; stroke: #d62728"/>
     <use xlink:href="#m0f962e06e0" x="332.167549" y="336.830433" style="fill: #d62728; stroke: #d62728"/>
     <use xlink:href="#m0f962e06e0" x="335.419494" y="332.919724" style="fill: #d62728; stroke: #d62728"/>
     <use xlink:href="#m0f962e06e0" x="438.055868" y="308.673332" style="fill: #d62728; stroke: #d62728"/>
     <use xlink:href="#m0f962e06e0" x="446.354343" y="284.426939" style="fill: #d62728; stroke: #d62728"/>
     <use xlink:href="#m0f962e06e0" x="465.799531" y="276.605522" style="fill: #d62728; stroke: #d62728"/>
     <use xlink:href="#m0f962e06e0" x="479.392531" y="272.694813" style="fill: #d62728; stroke: #d62728"/>
     <use xlink:href="#m0f962e06e0" x="483.117287" y="246.101995" style="fill: #d62728; stroke: #d62728"/>
     <use xlink:href="#m0f962e06e0" x="514.714734" y="239.06272" style="fill: #d62728; stroke: #d62728"/>
     <use xlink:href="#m0f962e06e0" x="516.340051" y="236.716295" style="fill: #d62728; stroke: #d62728"/>
     <use xlink:href="#m0f962e06e0" x="524.771927" y="225.766311" style="fill: #d62728; stroke: #d62728"/>
     <use xlink:href="#m0f962e06e0" x="538.00321" y="170.23425" style="fill: #d62728; stroke: #d62728"/>
     <use xlink:href="#m0f962e06e0" x="556.412675" y="125.652173" style="fill: #d62728; stroke: #d62728"/>
     <use xlink:href="#m0f962e06e0" x="558.334538" y="127.998598" style="fill: #d62728; stroke: #d62728"/>
     <use xlink:href="#m0f962e06e0" x="580.504187" y="128.78074" style="fill: #d62728; stroke: #d62728"/>
     <use xlink:href="#m0f962e06e0" x="589.844071" y="131.127165" style="fill: #d62728; stroke: #d62728"/>
     <use xlink:href="#m0f962e06e0" x="593.986528" y="137.384298" style="fill: #d62728; stroke: #d62728"/>
     <use xlink:href="#m0f962e06e0" x="597.987274" y="122.523606" style="fill: #d62728; stroke: #d62728"/>
    </g>
   </g>
   <g id="patch_3">
    <path d="M 42.569063 436.905464 
L 42.569063 24.795 
" style="fill: none; stroke: #cccccc; stroke-linejoin: miter; stroke-linecap: square"/>
   </g>
   <g id="patch_4">
    <path d="M 631.269063 436.905464 
L 631.269063 24.795 
" style="fill: none; stroke: #cccccc; stroke-linejoin: miter; stroke-linecap: square"/>
   </g>
   <g id="patch_5">
    <path d="M 42.569063 436.905464 
L 631.269062 436.905464 
" style="fill: none; stroke: #cccccc; stroke-linejoin: miter; stroke-linecap: square"/>
   </g>
   <g id="patch_6">
    <path d="M 42.569063 24.795 
L 631.269062 24.795 
" style="fill: none; stroke: #cccccc; stroke-linejoin: miter; stroke-linecap: square"/>
   </g>
   <g id="text_17">
    <!-- Multi-File Line Count History -->
    <g style="fill: #262626" transform="translate(236.447812 18.795) scale(0.16 -0.16)">
     <defs>
      <path id="LiberationSans-4d" d="M 4269 0 
L 4269 2938 
Q 4269 3425 4297 3875 
Q 4144 3316 4022 3000 
L 2884 0 
L 2466 0 
L 1313 3000 
L 1138 3531 
L 1034 3875 
L 1044 3528 
L 1056 2938 
L 1056 0 
L 525 0 
L 525 4403 
L 1309 4403 
L 2481 1350 
Q 2544 1166 2601 955 
Q 2659 744 2678 650 
Q 2703 775 2783 1029 
Q 2863 1284 2891 1350 
L 4041 4403 
L 4806 4403 
L 4806 0 
L 4269 0 
z
" transform="scale(0.015625)"/>
      <path id="LiberationSans-75" d="M 981 3381 
L 981 1238 
Q 981 903 1047 718 
Q 1113 534 1256 453 
Q 1400 372 1678 372 
Q 2084 372 2318 650 
Q 2553 928 2553 1422 
L 2553 3381 
L 3116 3381 
L 3116 722 
Q 3116 131 3134 0 
L 2603 0 
Q 2600 16 2597 84 
Q 2594 153 2589 242 
Q 2584 331 2578 578 
L 2569 578 
Q 2375 228 2120 82 
Q 1866 -63 1488 -63 
Q 931 -63 673 214 
Q 416 491 416 1128 
L 416 3381 
L 981 3381 
z
" transform="scale(0.015625)"/>
      <path id="LiberationSans-6c" d="M 431 0 
L 431 4638 
L 994 4638 
L 994 0 
L 431 0 
z
" transform="scale(0.015625)"/>
      <path id="LiberationSans-46" d="M 1122 3916 
L 1122 2278 
L 3578 2278 
L 3578 1784 
L 1122 1784 
L 1122 0 
L 525 0 
L 525 4403 
L 3653 4403 
L 3653 3916 
L 1122 3916 
z
" transform="scale(0.015625)"/>
      <path id="LiberationSans-48" d="M 3503 0 
L 3503 2041 
L 1122 2041 
L 1122 0 
L 525 0 
L 525 4403 
L 1122 4403 
L 1122 2541 
L 3503 2541 
L 3503 4403 
L 4100 4403 
L 4100 0 
L 3503 0 
z
" transform="scale(0.015625)"/>
      <path id="LiberationSans-72" d="M 444 0 
L 444 2594 
Q 444 2950 425 3381 
L 956 3381 
Q 981 2806 981 2691 
L 994 2691 
Q 1128 3125 1303 3284 
Q 1478 3444 1797 3444 
Q 1909 3444 2025 3413 
L 2025 2897 
Q 1913 2928 1725 2928 
Q 1375 2928 1190 2626 
Q 1006 2325 1006 1763 
L 1006 0 
L 444 0 
z
" transform="scale(0.015625)"/>
      <path id="LiberationSans-79" d="M 597 -1328 
Q 366 -1328 209 -1294 
L 209 -872 
Q 328 -891 472 -891 
Q 997 -891 1303 -119 
L 1356 16 
L 16 3381 
L 616 3381 
L 1328 1513 
Q 1344 1469 1366 1408 
Q 1388 1347 1506 1000 
Q 1625 653 1634 613 
L 1853 1228 
L 2594 3381 
L 3188 3381 
L 1888 0 
Q 1678 -541 1497 -805 
Q 1316 -1069 1095 -1198 
Q 875 -1328 597 -1328 
z
" transform="scale(0.015625)"/>
     </defs>
     <use xlink:href="#LiberationSans-4d"/>
     <use xlink:href="#LiberationSans-75" transform="translate(83.300781 0)"/>
     <use xlink:href="#LiberationSans-6c" transform="translate(138.916016 0)"/>
     <use xlink:href="#LiberationSans-74" transform="translate(161.132812 0)"/>
     <use xlink:href="#LiberationSans-69" transform="translate(188.916016 0)"/>
     <use xlink:href="#LiberationSans-2d" transform="translate(211.132812 0)"/>
     <use xlink:href="#LiberationSans-46" transform="translate(244.433594 0)"/>
     <use xlink:href="#LiberationSans-69" transform="translate(305.517578 0)"/>
     <use xlink:href="#LiberationSans-6c" transform="translate(327.734375 0)"/>
     <use xlink:href="#LiberationSans-65" transform="translate(349.951172 0)"/>
     <use xlink:href="#LiberationSans-20" transform="translate(405.566406 0)"/>
     <use xlink:href="#LiberationSans-4c" transform="translate(433.349609 0)"/>
     <use xlink:href="#LiberationSans-69" transform="translate(488.964844 0)"/>
     <use xlink:href="#LiberationSans-6e" transform="translate(511.181641 0)"/>
     <use xlink:href="#LiberationSans-65" transform="translate(566.796875 0)"/>
     <use xlink:href="#LiberationSans-20" transform="translate(622.412109 0)"/>
     <use xlink:href="#LiberationSans-43" transform="translate(650.195312 0)"/>
     <use xlink:href="#LiberationSans-6f" transform="translate(722.412109 0)"/>
     <use xlink:href="#LiberationSans-75" transform="translate(778.027344 0)"/>
     <use xlink:href="#LiberationSans-6e" transform="translate(833.642578 0)"/>
     <use xlink:href="#LiberationSans-74" transform="translate(889.257812 0)"/>
     <use xlink:href="#LiberationSans-20" transform="translate(917.041016 0)"/>
     <use xlink:href="#LiberationSans-48" transform="translate(944.824219 0)"/>
     <use xlink:href="#LiberationSans-69" transform="translate(1017.041016 0)"/>
     <use xlink:href="#LiberationSans-73" transform="translate(1039.257812 0)"/>
     <use xlink:href="#LiberationSans-74" transform="translate(1089.257812 0)"/>
     <use xlink:href="#LiberationSans-6f" transform="translate(1117.041016 0)"/>
     <use xlink:href="#LiberationSans-72" transform="translate(1172.65625 0)"/>
     <use xlink:href="#LiberationSans-79" transform="translate(1205.957031 0)"/>
    </g>
   </g>
   <g id="legend_1">
    <g id="line2d_33">
     <path d="M 640.269063 37.541875 
L 650.269063 37.541875 
L 660.269063 37.541875 
" style="fill: none; stroke: #1f77b4; stroke-width: 1.5; stroke-linecap: round"/>
     <g>
      <use xlink:href="#m9791a1724d" x="650.269063" y="37.541875" style="fill: #1f77b4; stroke: #1f77b4"/>
     </g>
    </g>
    <g id="text_18">
     <!-- Hashimoto -->
     <g style="fill: #262626" transform="translate(668.269063 41.041875) scale(0.1 -0.1)">
      <defs>
       <path id="LiberationSans-68" d="M 991 2803 
Q 1172 3134 1426 3289 
Q 1681 3444 2072 3444 
Q 2622 3444 2883 3170 
Q 3144 2897 3144 2253 
L 3144 0 
L 2578 0 
L 2578 2144 
Q 2578 2500 2512 2673 
Q 2447 2847 2297 2928 
Q 2147 3009 1881 3009 
Q 1484 3009 1245 2734 
Q 1006 2459 1006 1994 
L 1006 0 
L 444 0 
L 444 4638 
L 1006 4638 
L 1006 3431 
Q 1006 3241 995 3037 
Q 984 2834 981 2803 
L 991 2803 
z
" transform="scale(0.015625)"/>
      </defs>
      <use xlink:href="#LiberationSans-48"/>
      <use xlink:href="#LiberationSans-61" transform="translate(72.216797 0)"/>
      <use xlink:href="#LiberationSans-73" transform="translate(127.832031 0)"/>
      <use xlink:href="#LiberationSans-68" transform="translate(177.832031 0)"/>
      <use xlink:href="#LiberationSans-69" transform="translate(233.447266 0)"/>
      <use xlink:href="#LiberationSans-6d" transform="translate(255.664062 0)"/>
      <use xlink:href="#LiberationSans-6f" transform="translate(338.964844 0)"/>
      <use xlink:href="#LiberationSans-74" transform="translate(394.580078 0)"/>
      <use xlink:href="#LiberationSans-6f" transform="translate(422.363281 0)"/>
     </g>
    </g>
    <g id="line2d_34">
     <path d="M 640.269063 51.86375 
L 650.269063 51.86375 
L 660.269063 51.86375 
" style="fill: none; stroke: #ff7f0e; stroke-width: 1.5; stroke-linecap: round"/>
     <g>
      <use xlink:href="#md9f6fc02c7" x="650.269063" y="51.86375" style="fill: #ff7f0e; stroke: #ff7f0e"/>
     </g>
    </g>
    <g id="text_19">
     <!-- Horio -->
     <g style="fill: #262626" transform="translate(668.269063 55.36375) scale(0.1 -0.1)">
      <use xlink:href="#LiberationSans-48"/>
      <use xlink:href="#LiberationSans-6f" transform="translate(72.216797 0)"/>
      <use xlink:href="#LiberationSans-72" transform="translate(127.832031 0)"/>
      <use xlink:href="#LiberationSans-69" transform="translate(161.132812 0)"/>
      <use xlink:href="#LiberationSans-6f" transform="translate(183.349609 0)"/>
     </g>
    </g>
    <g id="line2d_35">
     <path d="M 640.269063 66.185625 
L 650.269063 66.185625 
L 660.269063 66.185625 
" style="fill: none; stroke: #2ca02c; stroke-width: 1.5; stroke-linecap: round"/>
     <g>
      <use xlink:href="#m33c6e1a549" x="650.269063" y="66.185625" style="fill: #2ca02c; stroke: #2ca02c"/>
     </g>
    </g>
    <g id="text_20">
     <!-- Noguchi -->
     <g style="fill: #262626" transform="translate(668.269063 69.685625) scale(0.1 -0.1)">
      <defs>
       <path id="LiberationSans-4e" d="M 3381 0 
L 1025 3750 
L 1041 3447 
L 1056 2925 
L 1056 0 
L 525 0 
L 525 4403 
L 1219 4403 
L 3600 628 
Q 3563 1241 3563 1516 
L 3563 4403 
L 4100 4403 
L 4100 0 
L 3381 0 
z
" transform="scale(0.015625)"/>
       <path id="LiberationSans-67" d="M 1713 -1328 
Q 1159 -1328 831 -1111 
Q 503 -894 409 -494 
L 975 -413 
Q 1031 -647 1223 -773 
Q 1416 -900 1728 -900 
Q 2569 -900 2569 84 
L 2569 628 
L 2563 628 
Q 2403 303 2125 139 
Q 1847 -25 1475 -25 
Q 853 -25 561 387 
Q 269 800 269 1684 
Q 269 2581 583 3007 
Q 897 3434 1538 3434 
Q 1897 3434 2161 3270 
Q 2425 3106 2569 2803 
L 2575 2803 
Q 2575 2897 2587 3128 
Q 2600 3359 2613 3381 
L 3147 3381 
Q 3128 3213 3128 2681 
L 3128 97 
Q 3128 -1328 1713 -1328 
z
M 2569 1691 
Q 2569 2103 2456 2401 
Q 2344 2700 2139 2858 
Q 1934 3016 1675 3016 
Q 1244 3016 1047 2703 
Q 850 2391 850 1691 
Q 850 997 1034 694 
Q 1219 391 1666 391 
Q 1931 391 2137 547 
Q 2344 703 2456 995 
Q 2569 1288 2569 1691 
z
" transform="scale(0.015625)"/>
       <path id="LiberationSans-63" d="M 859 1706 
Q 859 1031 1071 706 
Q 1284 381 1713 381 
Q 2013 381 2214 543 
Q 2416 706 2463 1044 
L 3031 1006 
Q 2966 519 2616 228 
Q 2266 -63 1728 -63 
Q 1019 -63 645 385 
Q 272 834 272 1694 
Q 272 2547 647 2995 
Q 1022 3444 1722 3444 
Q 2241 3444 2583 3175 
Q 2925 2906 3013 2434 
L 2434 2391 
Q 2391 2672 2212 2837 
Q 2034 3003 1706 3003 
Q 1259 3003 1059 2706 
Q 859 2409 859 1706 
z
" transform="scale(0.015625)"/>
      </defs>
      <use xlink:href="#LiberationSans-4e"/>
      <use xlink:href="#LiberationSans-6f" transform="translate(72.216797 0)"/>
      <use xlink:href="#LiberationSans-67" transform="translate(127.832031 0)"/>
      <use xlink:href="#LiberationSans-75" transform="translate(183.447266 0)"/>
      <use xlink:href="#LiberationSans-63" transform="translate(239.0625 0)"/>
      <use xlink:href="#LiberationSans-68" transform="translate(289.0625 0)"/>
      <use xlink:href="#LiberationSans-69" transform="translate(344.677734 0)"/>
     </g>
    </g>
    <g id="line2d_36">
     <path d="M 640.269063 80.5075 
L 650.269063 80.5075 
L 660.269063 80.5075 
" style="fill: none; stroke: #d62728; stroke-width: 1.5; stroke-linecap: round"/>
     <g>
      <use xlink:href="#m0f962e06e0" x="650.269063" y="80.5075" style="fill: #d62728; stroke: #d62728"/>
     </g>
    </g>
    <g id="text_21">
     <!-- Toyoshima -->
     <g style="fill: #262626" transform="translate(668.269063 84.0075) scale(0.1 -0.1)">
      <use xlink:href="#LiberationSans-54"/>
      <use xlink:href="#LiberationSans-6f" transform="translate(49.958984 0)"/>
      <use xlink:href="#LiberationSans-79" transform="translate(105.574219 0)"/>
      <use xlink:href="#LiberationSans-6f" transform="translate(155.574219 0)"/>
      <use xlink:href="#LiberationSans-73" transform="translate(211.189453 0)"/>
      <use xlink:href="#LiberationSans-68" transform="translate(261.189453 0)"/>
      <use xlink:href="#LiberationSans-69" transform="translate(316.804688 0)"/>
      <use xlink:href="#LiberationSans-6d" transform="translate(339.021484 0)"/>
      <use xlink:href="#LiberationSans-61" transform="translate(422.322266 0)"/>
     </g>
    </g>
   </g>
  </g>
 </g>
 <defs>
  <clipPath id="p7f773fc5da">
   <rect x="42.569063" y="24.795" width="588.7" height="412.110464"/>
  </clipPath>
 </defs>
</svg>
